<svg version="1.1" xmlns="http://www.w3.org/2000/svg" viewBox="0 0 1030.3927100332392 481.1140801389757" width="2060.7854200664783" height="962.2281602779514">
  <!-- svg-source:excalidraw -->
  
  <defs>
    <style>
      @font-face {
        font-family: "Virgil";
        src: url("https://excalidraw.com/Virgil.woff2");
      }
      @font-face {
        font-family: "Cascadia";
        src: url("https://excalidraw.com/Cascadia.woff2");
      }
    </style>
  </defs>
  <rect x="0" y="0" width="1030.3927100332392" height="481.1140801389757" fill="#ffffff"></rect><g stroke-linecap="round" transform="translate(326.36694900078373 182.16783634954695) rotate(0 148.6008648754048 117.89612905198207)"><path d="M0 0 C0 0, 0 0, 0 0 M0 0 C0 0, 0 0, 0 0 M-0.6 5.68 C0.45 4.3, 2.95 2.93, 4.56 0.44 M-0.27 6.46 C1.51 3.85, 3.58 1.86, 4.92 0.63 M1 12.02 C1.69 10.33, 5.01 6.65, 10.57 1 M0.28 12.28 C1.85 9.01, 4.34 6.17, 10.72 -0.6 M1.21 17.88 C4.17 13, 7.23 10.11, 15.97 0.76 M-0.53 18.92 C4.24 12.95, 7.35 9.14, 14.96 0.69 M1.12 24.03 C6.33 16.55, 13.69 6.05, 20.88 -0.36 M0.39 24.29 C6.71 16.74, 13.37 9.43, 21.9 0.75 M-0.12 32.47 C9.12 21.75, 20.38 10.3, 24.37 -0.04 M0.34 29.85 C9.23 18.28, 19.12 7.01, 25.73 1.09 M-0.16 36.93 C9.65 24.91, 23.9 9.83, 33.29 -1.91 M0.67 36.11 C12.28 23.02, 22.73 10.79, 31.95 -0.41 M1.06 43.97 C11.93 29.85, 21.87 18.42, 35.25 -0.48 M-0.81 43.16 C10.74 31.38, 20.93 19.56, 37.63 -0.46 M1.45 47.98 C18.76 31.21, 32.68 10.55, 44.02 -0.37 M-0.34 49.91 C12.92 36.19, 22.93 21.86, 42.97 -0.36 M1.63 52.78 C11.85 42.47, 22.47 31.24, 48.48 -1.41 M0.76 55.02 C9.46 41.98, 21.43 30.16, 47.54 1.2 M1.79 62.44 C18.15 43.54, 35.35 21.9, 54.05 -1.93 M0.27 61.93 C20.02 36.41, 39.23 13.28, 53.89 0.13 M-1.47 66.82 C17.42 46.27, 32.02 27.84, 59.65 0.12 M0.04 67.73 C15.54 49.04, 33.85 30.04, 57.73 0.11 M1.06 72.64 C15.09 57.09, 29.21 43.99, 63.08 -0.03 M-0.54 72.5 C25.22 43.35, 51.68 14.43, 63.57 0.63 M1.41 80.55 C15.44 59.85, 31.66 41.87, 70.05 0.84 M-0.13 79.67 C22.27 54.13, 43.51 28.26, 68.88 0.14 M1.2 84.68 C28.69 52.88, 54.52 24.87, 75.52 -1.29 M0.59 85.83 C24.8 56.59, 50.14 27.97, 73.75 0.08 M-1.38 89.45 C16.77 71.59, 35.46 52.2, 80.7 1.23 M0.03 90.85 C29.8 56.03, 60.13 19.75, 79.04 0.04 M-0.81 97.18 C28.81 64.03, 55.42 34.76, 86.49 0.43 M-0.26 97.72 C17.57 77.61, 35.96 57.56, 84.05 -0.22 M1.94 105.05 C35.48 65.02, 71.26 26.17, 90.36 -0.41 M0.82 102.87 C27.08 73.16, 52.7 43.79, 90.65 0.41 M-0.3 108.29 C29.66 74.24, 59 42.23, 95.84 -1.96 M-0.64 109.58 C26.41 79.17, 50.83 49.87, 94.98 0.4 M-0.16 113.64 C25.04 86.33, 51.52 60.29, 101.47 1.98 M-0.55 114.72 C25.66 84.34, 53.78 53.71, 101.55 0.73 M1.18 122.22 C37.17 80.55, 73.04 36.82, 106.15 1.26 M-0.68 121.94 C22.34 93.74, 45.33 68.45, 106.96 -1.05 M-1.16 127.06 C35.26 87.23, 67.39 49.41, 110.21 0.25 M0.35 128.47 C32.8 91.52, 66.14 54.36, 111.98 0.31 M0.41 132.17 C32.85 95.7, 63.14 60.92, 116.05 -0.67 M0.53 134.44 C46.22 81.96, 91.18 27.86, 116.62 0.56 M0.18 141.65 C36.44 99.16, 70.94 58.55, 120.47 -1.98 M0.84 141.3 C45.77 88.31, 90.86 35.56, 121.54 -0.67 M1.92 147.16 C28.89 111.29, 61.4 79.4, 128.84 0.01 M-0.7 145.58 C43.19 94.13, 85.99 43.87, 126.47 0.46 M1.65 152.78 C36.7 110.56, 71.03 69.89, 133.75 0.63 M0.11 152.96 C33.59 110.43, 70.12 68.88, 132.28 -0.15 M-0.65 158.73 C47.13 106.12, 94.17 51.19, 138.48 0.12 M-0.32 158.49 C41.32 113.63, 82.38 66.12, 137.89 -0.4 M-0.73 165.8 C46.27 109.3, 95.06 58.15, 143.69 1.29 M0.85 164.1 C48.97 106.21, 99.83 46.79, 143.46 0.63 M-0.18 171.76 C31.97 131.8, 64.44 96.04, 146.99 0.4 M-0.84 170.78 C39.49 126.95, 78.83 83.23, 148.86 0.17 M1.88 175.56 C51.06 119.63, 97.72 63.96, 153.28 -0.57 M0.06 177.04 C53.04 113.51, 107.37 52.13, 153.21 0.64 M-1.26 183.67 C39.14 137.58, 80.9 90.02, 159.41 0.53 M-0.64 182.45 C54.01 119.09, 107.85 56.84, 158.52 0.21 M0.83 190.45 C53.45 125.82, 107.84 66.75, 164.82 0.82 M0.11 189.2 C35.16 150.55, 67.97 110.61, 164.25 -0.36 M-1.02 194.67 C58.04 127.39, 117.56 60.68, 169.68 0.86 M0.12 195.12 C37.56 152.82, 74.94 109.8, 169.2 -0.09 M-1.09 200.48 C65.18 126.9, 129.5 52.05, 175.33 -0.76 M0.16 201.18 C38.38 155.72, 76.52 112.06, 174.55 0.47 M1.29 206.33 C66.17 131.16, 130.89 54.96, 179.24 0.71 M0.01 206.97 C49.77 151.73, 98.86 96.02, 180.52 0.51 M0.36 213.32 C59.56 146.27, 117.42 78.05, 185.1 -1.72 M-0.14 213.58 C58.37 146.01, 117.05 78.51, 186.43 0.17 M-0.58 220.61 C53.9 158.45, 109.11 94.69, 191.4 0.09 M-0.28 219.32 C47.61 165.44, 94.42 110.65, 190.57 0.32 M-0.36 226.73 C69.17 147, 137.16 65.64, 195.6 -0.58 M0.88 225.01 C71.39 143.65, 141.34 63.83, 196.32 0.46 M-0.21 232.53 C51.29 170.95, 101.61 111.31, 200.86 1.05 M0.52 232.51 C40.27 185.74, 80.97 139.23, 201.23 0.34 M1.67 237.12 C66.35 161.09, 134.4 80.45, 207.93 0.94 M0.27 237.37 C52.11 178.57, 102.16 120.59, 206.37 -0.8 M6.93 234.92 C73.14 156.51, 142.69 77.03, 213.32 0.29 M6.49 236.35 C78.58 152.83, 151.12 69.16, 211.26 0.27 M12.96 237.55 C57.47 186.79, 99.81 137.01, 218.78 -0.17 M12.27 237.13 C54.78 188.86, 97.02 138.73, 217.32 -0.09 M17.57 237.96 C84.28 157.45, 154.99 77.84, 223.39 -0.51 M17.1 236.96 C62.04 185.49, 107.97 134.93, 222.92 -0.61 M21.65 236.22 C70.29 183.17, 117.35 127.67, 227.51 -1.46 M22.68 236.55 C86.54 160.33, 152.7 83.38, 228.14 -0.41 M26.04 236.71 C69.25 188, 113.44 139.39, 233.34 0.83 M27.72 237.43 C88.45 165.77, 151.36 94.2, 232.73 0.06 M33.29 236.29 C101.43 156.93, 168.82 80.52, 236.87 1.53 M32.77 236.78 C112.69 145.37, 192.75 52.12, 238.82 0.14 M38.37 236.62 C89.51 178.43, 139.03 119.32, 243.1 -0.05 M37.43 237.04 C119.04 145.44, 198.46 53.87, 243.53 -0.07 M42.56 237.23 C107.97 162.27, 170.4 87.88, 248.56 -0.51 M43.01 237.12 C97.63 175.33, 151.99 113.78, 249.46 0.41 M49.72 236.52 C100.99 178.25, 153.82 117.99, 254.56 -1.28 M48.34 236.36 C98.47 178.05, 150.68 118.03, 253.81 -0.26 M54.64 236.2 C117.32 166.58, 178.46 94.94, 260.66 0.82 M53.81 237.11 C115.8 165.37, 177.2 94.13, 259.9 -0.02 M59.25 236.54 C105.58 184.74, 151.26 129.48, 264.39 1.01 M58.6 237.3 C130.83 152.96, 202.7 70.09, 265.54 -0.22 M63.8 235.19 C122.11 170.72, 179.57 103.22, 268.88 1.67 M64.77 235.85 C132.27 156.42, 201.14 76.66, 270.21 -0.28 M68.82 236.63 C118.89 178.57, 166.13 120.83, 276.91 -0.16 M70.17 236.67 C138.93 160.14, 206.98 81.63, 276.33 -0.81 M74.82 236.75 C145.77 152.95, 220.35 69.5, 281.52 -0.56 M75.43 236.96 C139.31 162.57, 204.24 89.11, 280.72 0.38 M81.47 238.01 C156.65 150.12, 231.77 62.15, 285.58 -1.23 M81.06 236.88 C146.99 159.54, 212.86 83.72, 285.87 -0.53 M87.27 236.87 C144.75 172.2, 201.34 107.23, 292.46 -0.09 M85.96 236.47 C130.24 185.06, 175.01 133.94, 291.35 0.51 M91.54 236.07 C164.35 150.52, 239.43 62.92, 297.15 -0.95 M91.64 236.69 C139.8 179.87, 188.66 122.94, 296.6 -0.46 M96.99 237.8 C162.91 156.8, 232.66 77.65, 300.54 0.99 M96.44 236.37 C170.32 147.56, 246.07 60.75, 300.31 2.2 M100.23 235.96 C176.65 149.39, 250.23 64.5, 299.64 10.16 M101.17 236.14 C158.18 172.68, 213.56 106.79, 299.45 8.35 M105.92 235.12 C156.97 178.26, 207.83 117.7, 299.75 14.32 M107.63 236.81 C172.78 162.88, 236.64 89.11, 300.81 14.92 M111.48 237.11 C157.81 182.75, 201.81 130.5, 298.93 21.24 M112.78 237.44 C159.02 183.16, 205.85 128.48, 299.85 21.49 M118.25 236.67 C176.63 168.66, 238.1 97.84, 300.52 26.86 M117.21 236.69 C189.31 154.21, 261.24 71.93, 299.88 26.3 M121.79 237.17 C189.28 155.76, 257.24 77.7, 298.86 32.17 M122.58 236.74 C161.16 192.67, 198.97 148.2, 299.76 32.62 M129.12 238.48 C168.08 188.98, 210.09 143.53, 300.98 38.7 M127.38 236.61 C176.04 179.4, 225.77 123.53, 299.44 39.64 M133.4 236.55 C186.96 174.07, 241.12 113, 299.83 43.65 M133.7 236.8 C170.51 192.72, 208.27 148.26, 299.92 44.7 M137.3 237.56 C174.37 194.03, 213.29 149.34, 299.19 52.3 M137.7 236.83 C185.55 185.13, 230 133.23, 299.14 51.25 M143.62 237.19 C199.33 173.3, 254.85 110.31, 299.5 55.49 M143.37 237.31 C182.32 192.17, 219.22 149.13, 300.27 57.24 M150.06 235.33 C179.68 201.81, 211.2 165.95, 300.74 62.58 M149.63 236.18 C189.86 188.99, 229.82 142.55, 299.3 63.59 M156.05 237.66 C195.72 191.82, 234.05 145.94, 300.4 68.85 M154.8 236.95 C210.42 170.65, 268.03 105.58, 299.99 68.99 M161.22 236.82 C209.87 179.51, 262.23 119.29, 300.19 74.99 M160.25 236.27 C202.21 187.89, 243.63 139.5, 299.61 74.91 M165.6 237.9 C198.79 195.48, 234 155.14, 300.93 81.64 M164.87 235.85 C203.3 192.63, 240.66 147.98, 299.21 80.98 M171.8 235.55 C219.81 176.12, 272.58 117.62, 302.19 88.36 M170.68 236.54 C202.41 201.53, 232.98 164.81, 301.06 87.69 M177.4 237.76 C223.57 181.06, 274.57 125.08, 299.61 94.7 M176.89 236.86 C216.79 187.27, 258.54 140.47, 299.48 93.44 M181.25 236.68 C214.97 195.48, 250.46 156.69, 301.04 99.64 M180.05 236.8 C216.17 195.68, 251.99 154.28, 300.48 99.6 M187.07 234.47 C222.92 197.77, 256.11 154.91, 300.13 106.75 M187.13 237.24 C212.91 206.52, 238.71 175.05, 300.53 105.27 M190.36 236.37 C220.35 197.58, 255.23 164.7, 300.66 111.21 M192.58 235.98 C225.86 197.76, 260.92 156.77, 299.89 112.57 M197.85 237.48 C236.5 191.91, 276.39 145.73, 301.33 117.35 M196.99 236.77 C225.64 204.59, 250.31 176, 299.63 117.45 M202.45 235.58 C237.82 194.36, 275.6 150.83, 300.69 125.52 M202.29 237.48 C230.24 203.49, 259.36 171.66, 299.79 124.76 M206.67 237.91 C237.46 199.28, 268.26 165.3, 297.94 129.61 M208.33 237.13 C241.9 197.87, 274.13 161.32, 300.36 131.17 M213.56 238.04 C243.64 200.61, 278.7 165.01, 301.14 136.1 M212.11 236.05 C233.57 213.42, 253.96 191.03, 300.74 136.41 M218.17 234.63 C236.28 216.96, 254.37 196.8, 301.42 141.18 M218.39 236.89 C243.56 208.96, 266.24 183.22, 300.15 143.72 M222.44 236.27 C241.45 215.34, 258.3 195.45, 299.76 150.23 M222.86 236.8 C245.96 212.02, 268.42 186.18, 299.67 147.62 M230.71 236.29 C245.31 219.2, 259.69 202.42, 301.95 154.72 M228.8 236.46 C249.53 214.35, 269.74 191.11, 299.37 154.03 M232.57 237.58 C257.67 212.35, 278.52 184.88, 301.35 159.71 M234.24 236.22 C250.46 218.09, 266.13 198.65, 300.29 162.11 M238.38 235.35 C255.97 218.47, 269.74 201.29, 301.11 164.95 M240.59 237.12 C262.98 210.43, 284.91 184.76, 300.92 166.6 M246.14 238.03 C261.22 219.54, 275.04 202.76, 298.4 171.9 M243.83 237.11 C258.31 220.12, 272.3 205.79, 300.62 173.19 M248.32 238.77 C270.89 215.28, 287.89 191.83, 301.19 177.34 M250.51 236.76 C263.26 223.81, 275.38 209.46, 300.6 179.31 M254.06 236.5 C269.56 217.16, 285.56 200.89, 301.16 184.17 M256.14 235.69 C266.47 224.45, 276.1 212.53, 300.13 185.3 M261.38 235.04 C268.65 225.95, 281.36 212.11, 298.52 190.93 M260.69 237.87 C274.57 220, 291.81 200.82, 299.45 191.16 M265.96 236.62 C278.24 223.13, 288.75 207.63, 298.22 198.93 M265.54 236.49 C275.72 223.34, 288.55 210.77, 299.32 197.98 M270.12 236.71 C275.16 232.2, 283.58 224.51, 300.15 205.26 M271.66 237.04 C276.73 230.45, 282.09 222.56, 299.36 204.24 M276.19 236.82 C285.99 227.41, 293.74 216.72, 301.94 210.37 M277.28 237.42 C281.86 230.14, 288.47 224.57, 300.1 209.64 M283.51 235.34 C287.84 229.11, 294.12 225.46, 301.87 214.9 M282.01 237.01 C286.38 231.29, 289.73 227.15, 300.13 215.25 M285.9 236.32 C289.87 231.13, 294.87 227.6, 301.6 223.16 M286.57 236.75 C290.03 233.05, 293.58 230.52, 300.08 221.33 M292.26 236.51 C295.06 232.7, 297.11 230.87, 300.57 228.21 M292.56 236.54 C295.01 234.09, 297.61 230.66, 300.75 227.63" stroke="#ced4da" stroke-width="0.5" fill="none"></path><path d="M-1.02 -1.43 C95.99 2.07, 190.93 1.25, 296.81 0.02 M0.47 -0.02 C110.4 1.41, 221.89 2.16, 296.93 -0.31 M297.86 0.91 C299.27 95.45, 299.52 187.3, 298.12 235.82 M297.25 -0.21 C296.3 91.45, 295.07 181.13, 297.8 235.43 M298.26 234.56 C214.15 234.88, 127.42 235.47, 0.96 234.7 M297.31 236.27 C225.76 234.07, 153.77 234.4, -0.04 235.53 M-0.11 237 C0.36 156.31, -0.72 74.96, -0.5 1.11 M-0.43 235.75 C0.72 170.4, 0.19 104.72, -0.11 -0.62" stroke="#000000" stroke-width="1" fill="none"></path></g><g stroke-linecap="round"><g transform="translate(439.8585104690744 228.6759364139129) rotate(0 0.07993066039037444 54.022090130237245)" fill-rule="evenodd"><path d="M-0.99 1.65 L-49.04 26.04 L-48.83 80.67 L1.83 106.8 L46.8 78.42 L46.3 25.4 L-1.6 -1.02" stroke="none" stroke-width="0" fill="#40c057" fill-rule="evenodd"></path><path d="M-0.82 0.1 C-18.05 9.87, -40.06 21, -46.92 27.61 M-0.08 -0.63 C-17.44 9.44, -34.89 20.61, -47.86 28.45 M-48.09 27.78 C-47.82 43.02, -47.74 57.87, -46.93 80.49 M-48.71 26.99 C-47.41 38.28, -48.2 49.35, -48 80.49 M-48.57 81.21 C-27.59 89.96, -8.65 101.88, 0.91 107.84 M-47.33 80.45 C-36.05 88.17, -25.33 93.66, 1.07 109.72 M0.1 108.12 C13.89 100.79, 29.62 90.91, 46.26 76.82 M0.72 107.79 C11.86 101.07, 25.2 92.18, 47.87 78.43 M48.01 79.98 C46.73 65.26, 45.33 53.93, 46.92 27.74 M47.86 79.02 C47.28 63.82, 47.64 47.89, 46.59 25.17 M48.87 25.95 C35.34 20.97, 25.62 13.47, -0.43 -1.68 M46.47 26.16 C32.18 18.34, 17.47 8.88, -0.81 0.26 M0 0 C0 0, 0 0, 0 0 M0 0 C0 0, 0 0, 0 0" stroke="#000000" stroke-width="1" fill="none"></path></g></g><g stroke-linecap="round"><g transform="translate(423.4193274664036 271.8182306984946) rotate(0 14.743125482747956 10.768027367110449)" fill-rule="evenodd"><path d="M-1.35 1.72 L-0.2 30.66 L-0.49 33.88 L-4.13 37.73 L-6.39 32.88 L-10.23 22.29 L-7.94 -5.07 L-5.96 -12.5 L-2.62 -15.31 L0.83 -13.78 L25.41 21.47 L29.08 22.12 L32.18 -11.07 L33.5 -13.16 L40.17 -11.75 L40.33 6.57 L37.64 31.26 L31.63 36.6 L25.89 34.73 L22.11 29.16 L-0.6 1.42" stroke="none" stroke-width="0" fill="#ffff" fill-rule="evenodd"></path><path d="M-0.49 0.06 C-0.22 2.54, 1.13 9.84, 0.98 15.32 C0.83 20.81, 0.05 30.04, -1.39 32.96 C-2.83 35.87, -6.37 37.19, -7.65 32.81 C-8.92 28.43, -9.16 14.11, -9.03 6.66 C-8.9 -0.79, -8.6 -8.83, -6.87 -11.89 C-5.15 -14.95, -2.19 -14.58, 1.32 -11.69 C4.84 -8.81, 9.63 -0.04, 14.23 5.4 C18.83 10.83, 26.03 23.66, 28.92 20.93 C31.81 18.19, 30.04 -5.45, 31.57 -11 C33.1 -16.55, 36.74 -15.6, 38.11 -12.37 C39.49 -9.13, 39.83 1.08, 39.81 8.4 C39.79 15.73, 40.19 27.6, 37.99 31.6 C35.78 35.6, 30.86 34.92, 26.59 32.39 C22.31 29.87, 16.94 21.9, 12.32 16.44 C7.7 10.98, 0.84 2.51, -1.13 -0.35 M1.45 -0.95 C1.68 1.62, 0.49 10.64, 0.41 16.45 C0.33 22.26, 2.21 31, 0.97 33.91 C-0.27 36.82, -5.19 38.47, -7.02 33.9 C-8.86 29.32, -9.75 14.28, -10.06 6.47 C-10.37 -1.35, -10.82 -9.8, -8.89 -12.99 C-6.95 -16.17, -2.62 -15.76, 1.57 -12.65 C5.76 -9.54, 11.98 0.27, 16.25 5.66 C20.53 11.06, 25.07 22.55, 27.22 19.7 C29.38 16.85, 27.32 -6.25, 29.17 -11.45 C31.03 -16.65, 36.81 -14.74, 38.35 -11.5 C39.89 -8.26, 38.41 1, 38.41 8.02 C38.4 15.03, 40.39 26.66, 38.33 30.61 C36.26 34.56, 30.24 34.16, 26.02 31.71 C21.8 29.26, 17.47 21.08, 13.02 15.91 C8.57 10.74, 1.56 3.42, -0.68 0.71" stroke="#000000" stroke-width="1" fill="none"></path></g></g><g transform="translate(810.5782774584459 186.90898787807294) rotate(0 43.94751542007708 21.070726571269844)"><text x="0" y="29.14145314253969" font-family="Virgil, Segoe UI Emoji" font-size="33.713162514031715px" fill="#000000" text-anchor="start" style="white-space: pre;" direction="ltr">TILE</text></g><g transform="translate(902.9748202319915 180.67059095896514) rotate(45.12205202912529 12.040415183582752 22.274768089628118)"><text x="0" y="31.549536179256243" font-family="Virgil, Segoe UI Emoji" font-size="35.81246064159283px" fill="#1864ab" text-anchor="start" style="white-space: pre;" direction="ltr">3</text></g><g transform="translate(912.9020187360366 190.64017384516933) rotate(404.69447952229183 13.846477461120173 22.274768089628125)"><text x="0" y="31.549536179256243" font-family="Virgil, Segoe UI Emoji" font-size="35.81246064159278px" fill="#a61e4d" text-anchor="start" style="white-space: pre;" direction="ltr">8</text></g><g stroke-linecap="round" transform="translate(405.64635000391183 317.7984922701064) rotate(0 37.3713041890897 34.903387874715804)"><path d="M36.29 -0.35 C43.54 -1.17, 52.89 1.05, 58.65 4.66 C64.4 8.27, 68.1 14.69, 70.84 21.3 C73.57 27.91, 76.46 37.92, 75.03 44.32 C73.61 50.73, 68.41 55.23, 62.3 59.73 C56.19 64.23, 45.84 70.47, 38.36 71.34 C30.89 72.2, 23.06 68.67, 17.42 64.89 C11.78 61.12, 7.44 55.14, 4.53 48.69 C1.61 42.24, -1.72 32.8, -0.07 26.21 C1.58 19.62, 7.57 13.58, 14.44 9.17 C21.31 4.77, 36.38 1.39, 41.17 -0.22 C45.97 -1.83, 43.4 -1.11, 43.2 -0.49 M66.41 18.35 C71.21 23.59, 77.13 31.07, 77.67 37.87 C78.2 44.68, 74.54 54.24, 69.64 59.17 C64.73 64.1, 56.08 66.48, 48.22 67.44 C40.37 68.4, 29.37 67.17, 22.51 64.95 C15.66 62.73, 10.37 59.32, 7.1 54.11 C3.84 48.9, 3.15 40.34, 2.91 33.69 C2.67 27.04, 1.96 19.94, 5.67 14.19 C9.39 8.44, 17.87 1.6, 25.21 -0.82 C32.56 -3.24, 42.48 -3.25, 49.76 -0.32 C57.05 2.6, 65.65 14.26, 68.92 16.74 C72.19 19.22, 69.77 14.41, 69.38 14.57" stroke="none" stroke-width="0" fill="#00008b"></path><path d="M56.45 6.73 C62.48 9.54, 69.33 15.76, 72.34 21.74 C75.35 27.72, 76.19 35.85, 74.51 42.61 C72.84 49.38, 68.18 57.55, 62.28 62.34 C56.39 67.13, 46.78 71.15, 39.14 71.35 C31.51 71.56, 22.68 67.64, 16.47 63.56 C10.25 59.47, 4.35 53.15, 1.87 46.83 C-0.61 40.5, -0.42 32.11, 1.57 25.61 C3.57 19.1, 8.37 11.89, 13.86 7.82 C19.35 3.75, 26.3 1.21, 34.54 1.2 C42.77 1.19, 58 5.42, 63.26 7.78 C68.53 10.13, 66.78 14.83, 66.13 15.34 M65.48 12.43 C70.58 17.46, 73.75 27.94, 74.89 34.7 C76.02 41.47, 76.25 47.43, 72.3 53.03 C68.35 58.63, 58.08 66.04, 51.18 68.3 C44.27 70.56, 37.52 68.54, 30.85 66.6 C24.18 64.66, 16.09 61.69, 11.14 56.66 C6.19 51.63, 2.41 43.41, 1.15 36.43 C-0.12 29.46, 0.17 20.04, 3.53 14.81 C6.9 9.58, 14.28 7.01, 21.37 5.07 C28.45 3.13, 38.27 2.02, 46.04 3.17 C53.8 4.33, 65.04 10.02, 67.98 12 C70.91 13.98, 64.03 14.57, 63.65 15.06" stroke="#495057" stroke-width="1" fill="none"></path></g><g stroke-linecap="round" transform="translate(396.22501281338555 306.1195893754343) rotate(0 46.7926413796165 47.10668595263405)"><path d="M46.32 -0.15 C53.87 -0.51, 63.04 3.31, 69.81 8.06 C76.57 12.81, 83 20.86, 86.89 28.36 C90.79 35.87, 93.57 44.99, 93.17 53.1 C92.78 61.22, 89.89 70.63, 84.51 77.04 C79.12 83.46, 69.16 88.96, 60.87 91.58 C52.59 94.19, 42.85 94.96, 34.8 92.75 C26.76 90.54, 18.21 84.88, 12.59 78.33 C6.98 71.78, 2.39 61.71, 1.11 53.45 C-0.17 45.19, 2 36.4, 4.92 28.75 C7.84 21.1, 7.98 11.72, 18.6 7.56 C29.23 3.41, 57.96 1.37, 68.68 3.81 C79.39 6.25, 83.49 21.27, 82.9 22.2" stroke="#495057" stroke-width="1.5" fill="none" stroke-dasharray="8 9"></path></g><g transform="translate(413.18341975633405 340.19342554783987) rotate(0 29.708616607461238 20.72694181915898)"><text x="0" y="29.453883638317976" font-family="Virgil, Segoe UI Emoji" font-size="32.476552019642554px" fill="#ffffff" text-anchor="start" style="white-space: pre;" direction="ltr">Lua</text></g><g stroke-linecap="round" transform="translate(444.58787705808925 328.7307986326987) rotate(0 9.421337190526799 9.421337190526856)"><path d="M18.84 9.42 C18.84 9.97, 18.79 10.52, 18.7 11.06 C18.6 11.59, 18.46 12.13, 18.27 12.64 C18.09 13.16, 17.85 13.66, 17.58 14.13 C17.31 14.6, 16.99 15.06, 16.64 15.48 C16.29 15.9, 15.9 16.29, 15.48 16.64 C15.06 16.99, 14.6 17.31, 14.13 17.58 C13.66 17.85, 13.16 18.09, 12.64 18.27 C12.13 18.46, 11.59 18.6, 11.06 18.7 C10.52 18.79, 9.97 18.84, 9.42 18.84 C8.88 18.84, 8.32 18.79, 7.79 18.7 C7.25 18.6, 6.71 18.46, 6.2 18.27 C5.69 18.09, 5.18 17.85, 4.71 17.58 C4.24 17.31, 3.78 16.99, 3.37 16.64 C2.95 16.29, 2.55 15.9, 2.2 15.48 C1.85 15.06, 1.53 14.6, 1.26 14.13 C0.99 13.66, 0.75 13.16, 0.57 12.64 C0.38 12.13, 0.24 11.59, 0.14 11.06 C0.05 10.52, 0 9.97, 0 9.42 C0 8.88, 0.05 8.32, 0.14 7.79 C0.24 7.25, 0.38 6.71, 0.57 6.2 C0.75 5.69, 0.99 5.18, 1.26 4.71 C1.53 4.24, 1.85 3.78, 2.2 3.37 C2.55 2.95, 2.95 2.55, 3.37 2.2 C3.78 1.85, 4.24 1.53, 4.71 1.26 C5.18 0.99, 5.69 0.75, 6.2 0.57 C6.71 0.38, 7.25 0.24, 7.79 0.14 C8.32 0.05, 8.88 0, 9.42 0 C9.97 0, 10.52 0.05, 11.06 0.14 C11.59 0.24, 12.13 0.38, 12.64 0.57 C13.16 0.75, 13.66 0.99, 14.13 1.26 C14.6 1.53, 15.06 1.85, 15.48 2.2 C15.9 2.55, 16.29 2.95, 16.64 3.37 C16.99 3.78, 17.31 4.24, 17.58 4.71 C17.85 5.18, 18.09 5.69, 18.27 6.2 C18.46 6.71, 18.6 7.25, 18.7 7.79 C18.79 8.32, 18.82 9.15, 18.84 9.42 C18.87 9.69, 18.87 9.15, 18.84 9.42" stroke="none" stroke-width="0" fill="#ffffff"></path><path d="M18.84 9.42 C18.84 9.97, 18.79 10.52, 18.7 11.06 C18.6 11.59, 18.46 12.13, 18.27 12.64 C18.09 13.16, 17.85 13.66, 17.58 14.13 C17.31 14.6, 16.99 15.06, 16.64 15.48 C16.29 15.9, 15.9 16.29, 15.48 16.64 C15.06 16.99, 14.6 17.31, 14.13 17.58 C13.66 17.85, 13.16 18.09, 12.64 18.27 C12.13 18.46, 11.59 18.6, 11.06 18.7 C10.52 18.79, 9.97 18.84, 9.42 18.84 C8.88 18.84, 8.32 18.79, 7.79 18.7 C7.25 18.6, 6.71 18.46, 6.2 18.27 C5.69 18.09, 5.18 17.85, 4.71 17.58 C4.24 17.31, 3.78 16.99, 3.37 16.64 C2.95 16.29, 2.55 15.9, 2.2 15.48 C1.85 15.06, 1.53 14.6, 1.26 14.13 C0.99 13.66, 0.75 13.16, 0.57 12.64 C0.38 12.13, 0.24 11.59, 0.14 11.06 C0.05 10.52, 0 9.97, 0 9.42 C0 8.88, 0.05 8.32, 0.14 7.79 C0.24 7.25, 0.38 6.71, 0.57 6.2 C0.75 5.69, 0.99 5.18, 1.26 4.71 C1.53 4.24, 1.85 3.78, 2.2 3.37 C2.55 2.95, 2.95 2.55, 3.37 2.2 C3.78 1.85, 4.24 1.53, 4.71 1.26 C5.18 0.99, 5.69 0.75, 6.2 0.57 C6.71 0.38, 7.25 0.24, 7.79 0.14 C8.32 0.05, 8.88 0, 9.42 0 C9.97 0, 10.52 0.05, 11.06 0.14 C11.59 0.24, 12.13 0.38, 12.64 0.57 C13.16 0.75, 13.66 0.99, 14.13 1.26 C14.6 1.53, 15.06 1.85, 15.48 2.2 C15.9 2.55, 16.29 2.95, 16.64 3.37 C16.99 3.78, 17.31 4.24, 17.58 4.71 C17.85 5.18, 18.09 5.69, 18.27 6.2 C18.46 6.71, 18.6 7.25, 18.7 7.79 C18.79 8.32, 18.82 9.15, 18.84 9.42 C18.87 9.69, 18.87 9.15, 18.84 9.42" stroke="#ffffff" stroke-width="1.5" fill="none" stroke-dasharray="8 9"></path></g><g stroke-linecap="round" transform="translate(466.5709971693186 306.7476785214695) rotate(0 9.421337190526799 9.421337190526856)"><path d="M18.84 9.42 C18.84 9.97, 18.79 10.52, 18.7 11.06 C18.6 11.59, 18.46 12.13, 18.27 12.64 C18.09 13.16, 17.85 13.66, 17.58 14.13 C17.31 14.6, 16.99 15.06, 16.64 15.48 C16.29 15.9, 15.9 16.29, 15.48 16.64 C15.06 16.99, 14.6 17.31, 14.13 17.58 C13.66 17.85, 13.16 18.09, 12.64 18.27 C12.13 18.46, 11.59 18.6, 11.06 18.7 C10.52 18.79, 9.97 18.84, 9.42 18.84 C8.88 18.84, 8.32 18.79, 7.79 18.7 C7.25 18.6, 6.71 18.46, 6.2 18.27 C5.69 18.09, 5.18 17.85, 4.71 17.58 C4.24 17.31, 3.78 16.99, 3.37 16.64 C2.95 16.29, 2.55 15.9, 2.2 15.48 C1.85 15.06, 1.53 14.6, 1.26 14.13 C0.99 13.66, 0.75 13.16, 0.57 12.64 C0.38 12.13, 0.24 11.59, 0.14 11.06 C0.05 10.52, 0 9.97, 0 9.42 C0 8.88, 0.05 8.32, 0.14 7.79 C0.24 7.25, 0.38 6.71, 0.57 6.2 C0.75 5.69, 0.99 5.18, 1.26 4.71 C1.53 4.24, 1.85 3.78, 2.2 3.37 C2.55 2.95, 2.95 2.55, 3.37 2.2 C3.78 1.85, 4.24 1.53, 4.71 1.26 C5.18 0.99, 5.69 0.75, 6.2 0.57 C6.71 0.38, 7.25 0.24, 7.79 0.14 C8.32 0.05, 8.88 0, 9.42 0 C9.97 0, 10.52 0.05, 11.06 0.14 C11.59 0.24, 12.13 0.38, 12.64 0.57 C13.16 0.75, 13.66 0.99, 14.13 1.26 C14.6 1.53, 15.06 1.85, 15.48 2.2 C15.9 2.55, 16.29 2.95, 16.64 3.37 C16.99 3.78, 17.31 4.24, 17.58 4.71 C17.85 5.18, 18.09 5.69, 18.27 6.2 C18.46 6.71, 18.6 7.25, 18.7 7.79 C18.79 8.32, 18.82 9.15, 18.84 9.42 C18.87 9.69, 18.87 9.15, 18.84 9.42" stroke="none" stroke-width="0" fill="#00008b"></path><path d="M18.84 9.42 C18.84 9.97, 18.79 10.52, 18.7 11.06 C18.6 11.59, 18.46 12.13, 18.27 12.64 C18.09 13.16, 17.85 13.66, 17.58 14.13 C17.31 14.6, 16.99 15.06, 16.64 15.48 C16.29 15.9, 15.9 16.29, 15.48 16.64 C15.06 16.99, 14.6 17.31, 14.13 17.58 C13.66 17.85, 13.16 18.09, 12.64 18.27 C12.13 18.46, 11.59 18.6, 11.06 18.7 C10.52 18.79, 9.97 18.84, 9.42 18.84 C8.88 18.84, 8.32 18.79, 7.79 18.7 C7.25 18.6, 6.71 18.46, 6.2 18.27 C5.69 18.09, 5.18 17.85, 4.71 17.58 C4.24 17.31, 3.78 16.99, 3.37 16.64 C2.95 16.29, 2.55 15.9, 2.2 15.48 C1.85 15.06, 1.53 14.6, 1.26 14.13 C0.99 13.66, 0.75 13.16, 0.57 12.64 C0.38 12.13, 0.24 11.59, 0.14 11.06 C0.05 10.52, 0 9.97, 0 9.42 C0 8.88, 0.05 8.32, 0.14 7.79 C0.24 7.25, 0.38 6.71, 0.57 6.2 C0.75 5.69, 0.99 5.18, 1.26 4.71 C1.53 4.24, 1.85 3.78, 2.2 3.37 C2.55 2.95, 2.95 2.55, 3.37 2.2 C3.78 1.85, 4.24 1.53, 4.71 1.26 C5.18 0.99, 5.69 0.75, 6.2 0.57 C6.71 0.38, 7.25 0.24, 7.79 0.14 C8.32 0.05, 8.88 0, 9.42 0 C9.97 0, 10.52 0.05, 11.06 0.14 C11.59 0.24, 12.13 0.38, 12.64 0.57 C13.16 0.75, 13.66 0.99, 14.13 1.26 C14.6 1.53, 15.06 1.85, 15.48 2.2 C15.9 2.55, 16.29 2.95, 16.64 3.37 C16.99 3.78, 17.31 4.24, 17.58 4.71 C17.85 5.18, 18.09 5.69, 18.27 6.2 C18.46 6.71, 18.6 7.25, 18.7 7.79 C18.79 8.32, 18.82 9.15, 18.84 9.42 C18.87 9.69, 18.87 9.15, 18.84 9.42" stroke="#00008b" stroke-width="1.5" fill="none" stroke-dasharray="8 9"></path></g><g stroke-linecap="round" transform="translate(816.5519018955858 369.09482331087736) rotate(0 47.71552385972848 19.63413900448157)"><path d="M46.48 1.27 L96.56 18.89 L47.12 38.67 L-1.45 20.47" stroke="none" stroke-width="0" fill="#c6302b" fill-rule="evenodd"></path><path d="M48.84 -0.8 C64.99 8.25, 84.52 15, 96.9 18.36 M48.2 -0.33 C66.86 7.99, 84.83 17.02, 96.07 20.99 M95.11 21.35 C81.59 25.85, 66 29.29, 46.27 37.65 M95.48 19.57 C82.46 24.65, 68.32 30.98, 47.62 38.8 M49.23 40.72 C35.49 36.11, 26.23 28.91, -0.77 19.35 M48.16 39.99 C32.46 33.89, 15.91 25.54, -0.62 19.09 M-0.55 19.55 C8.97 14.5, 18.74 12.21, 47.98 0.91 M-0.22 19.68 C10.79 16.69, 20.91 12.12, 47.59 -0.12" stroke="#000000" stroke-width="1" fill="none"></path></g><g stroke-linecap="round"><g transform="translate(816.9360963282895 388.82842870887055) rotate(0 47.59857347117918 12.38663399453884)" fill-rule="evenodd"><path d="M-0.69 0.09 L-1 4.92 L1.03 4.56 L49.47 25.54 L92.02 5.93 L96.54 5.44 L96.54 2.94 L93.61 1.63 L50.27 18.4 L-0.77 -0.65" stroke="none" stroke-width="0" fill="#912626" fill-rule="evenodd"></path><path d="M0.5 -0.48 C0.33 0.13, -1.09 2.52, -0.88 3.63 C-0.67 4.74, -1.91 4.51, 1.77 6.2 C5.44 7.89, 14.54 10.91, 21.16 13.77 C27.79 16.63, 37.1 21.24, 41.51 23.37 C45.92 25.5, 45.34 26.43, 47.62 26.54 C49.9 26.65, 50.48 26.04, 55.17 24.04 C59.85 22.04, 69.26 17.24, 75.74 14.54 C82.21 11.84, 90.59 9.65, 94.01 7.84 C97.43 6.04, 96.26 5.17, 96.25 3.7 C96.24 2.24, 95.6 -1.1, 93.95 -0.94 C92.3 -0.79, 93.14 1.49, 86.33 4.65 C79.53 7.8, 60.38 16.05, 53.14 17.97 C45.91 19.9, 51.94 19.34, 42.91 16.18 C33.88 13.02, 6.17 1.82, -1.04 -0.97 M-0.69 -1.78 C-0.5 -1.54, 1.11 0.13, 1.37 1.65 C1.63 3.17, -2.53 5.22, 0.88 7.34 C4.3 9.45, 15.25 11.65, 21.87 14.36 C28.5 17.06, 36.18 21.7, 40.65 23.58 C45.11 25.45, 46.17 25.76, 48.66 25.63 C51.15 25.49, 51.29 24.75, 55.6 22.77 C59.92 20.79, 68.36 16.4, 74.57 13.75 C80.79 11.1, 89.66 8.61, 92.89 6.86 C96.13 5.12, 93.79 4.51, 93.98 3.27 C94.18 2.04, 95.6 -0.79, 94.08 -0.56 C92.55 -0.33, 91.57 1.67, 84.82 4.65 C78.07 7.62, 60.7 14.9, 53.57 17.29 C46.44 19.69, 51.17 21.64, 42.04 19.03 C32.9 16.42, 5.66 4.74, -1.25 1.62" stroke="#000000" stroke-width="1" fill="none"></path></g></g><g stroke-linecap="round"><g transform="translate(816.7407943788843 374.62117792065305) rotate(0 47.35808683234791 12.441412665937236)" fill-rule="evenodd"><path d="M0.09 -0.85 L0.13 3.69 L0.02 7.67 L47.58 25.37 L91.81 8.51 L95.48 6.29 L96.76 0.77 L95.75 1.89 L47.5 18.71 L-0.65 0.85" stroke="none" stroke-width="0" fill="#912626" fill-rule="evenodd"></path><path d="M-0.48 -0.88 C-0.43 -0.44, -0.08 1.75, 0.27 3.13 C0.63 4.52, -1.52 5.28, 1.65 7.41 C4.82 9.54, 12.9 13.31, 19.29 15.91 C25.69 18.51, 35.12 21.34, 40 23.01 C44.88 24.67, 45.95 25.8, 48.57 25.91 C51.19 26.01, 51.28 25.2, 55.71 23.63 C60.14 22.05, 68.81 19.02, 75.15 16.46 C81.48 13.9, 90.39 10.47, 93.72 8.27 C97.04 6.07, 95.19 4.66, 95.1 3.28 C95.01 1.9, 94.47 -0.14, 93.17 0.01 C91.88 0.17, 94.03 1.32, 87.34 4.22 C80.65 7.11, 60.58 15.37, 53.03 17.39 C45.48 19.4, 51.05 19.28, 42.05 16.33 C33.05 13.38, 6.14 2.48, -0.97 -0.31 M1.47 1.27 C1.39 1.85, -0.4 3.85, -0.53 4.56 C-0.66 5.27, -2.55 3.97, 0.71 5.54 C3.97 7.1, 12.14 11.05, 19.02 13.96 C25.91 16.88, 36.82 21.24, 42.01 23.03 C47.19 24.81, 47.71 24.81, 50.11 24.66 C52.51 24.51, 51.89 23.47, 56.43 22.14 C60.97 20.81, 71.33 19.11, 77.33 16.68 C83.33 14.24, 89.35 9.85, 92.45 7.51 C95.54 5.17, 95.82 3.74, 95.9 2.63 C95.97 1.53, 94.48 0.67, 92.89 0.9 C91.3 1.12, 92.93 1.41, 86.35 3.99 C79.77 6.58, 60.4 14.46, 53.4 16.39 C46.41 18.33, 53.48 18.49, 44.38 15.59 C35.29 12.69, 6.22 1.47, -1.16 -1.03" stroke="#000000" stroke-width="1" fill="none"></path></g></g><g stroke-linecap="round" transform="translate(815.9583116466124 353.9582719620746) rotate(0 47.71552385972848 19.63413900448157)"><path d="M46.89 -0.88 L94.84 18.55 L48.47 40.41 L-1.92 19.82" stroke="none" stroke-width="0" fill="#c6302b" fill-rule="evenodd"></path><path d="M48.46 -0.37 C63.58 8.66, 78.72 15.95, 94.85 18.81 M47.78 -0.71 C64 6.98, 79.29 12.78, 95.12 19.04 M95.88 19.47 C80.13 23.89, 67.01 30.58, 46.98 38.58 M94.96 19.01 C81.48 25.56, 66 31.23, 48.72 39.46 M49.43 40.95 C29.41 31.36, 12.49 26.01, 0.56 21.08 M48.97 40.13 C31.92 33.02, 16.63 26.66, 0.56 20.52 M-1.05 18.72 C13.98 14.76, 27.13 7.52, 48.36 0.11 M0.91 20.86 C13.91 13.66, 26.6 7.76, 48.63 0.56" stroke="#000000" stroke-width="1" fill="none"></path></g><g stroke-linecap="round" transform="translate(815.3518042009271 338.3548991320442) rotate(0 47.71552385972848 19.63413900448157)"><path d="M47.12 -0.59 L93.98 20.47 L49.14 37.35 L-0.18 20" stroke="none" stroke-width="0" fill="#c6302b" fill-rule="evenodd"></path><path d="M47.63 -0.56 C61.66 3.45, 74.44 9.7, 94.24 20.4 M47.29 0.88 C61.33 6.44, 73.4 10.48, 94.47 19.84 M94.9 18.03 C76.33 25.57, 60.11 33.25, 47.31 39.36 M94.45 20.57 C82.87 24.27, 70.47 30.41, 48.19 39.88 M49.69 38.18 C29.41 31.78, 13.15 25.81, 1.08 20.32 M48.86 38.49 C29.33 31.65, 11.19 25.95, 0.52 19.73 M-1.28 20.85 C13.4 15.61, 24.94 9.51, 48.11 -0.45 M0.86 20.52 C12.31 14.08, 24.83 9.47, 48.56 -0.55" stroke="#000000" stroke-width="1" fill="none"></path></g><g stroke-linecap="round"><g transform="translate(816.3582585698721 358.69092521912324) rotate(0 47.14384741228065 13.029436562227602)" fill-rule="evenodd"><path d="M-0.95 -1.97 L0.99 3.88 L1.05 5.39 L49.77 26.68 L94.18 8.53 L94.39 6.49 L96.99 0.4 L93.55 -0.45 L49.44 20.04 L1.08 0.32" stroke="none" stroke-width="0" fill="#912626" fill-rule="evenodd"></path><path d="M-0.22 -0.33 C0.07 0.02, 0.32 1.29, 0.88 2.37 C1.45 3.46, 0.03 4.07, 3.14 6.18 C6.26 8.28, 13.43 12.05, 19.57 14.99 C25.7 17.94, 35.21 22.13, 39.96 23.87 C44.71 25.61, 45.29 25.31, 48.07 25.44 C50.84 25.58, 51.77 26.33, 56.62 24.66 C61.48 22.99, 71.2 18.57, 77.2 15.45 C83.19 12.33, 89.63 7.76, 92.58 5.93 C95.52 4.1, 94.51 5.37, 94.86 4.46 C95.22 3.55, 96.15 0.78, 94.71 0.48 C93.26 0.17, 93.37 -0.06, 86.21 2.65 C79.04 5.36, 58.94 14.38, 51.72 16.73 C44.51 19.08, 51.61 19.53, 42.92 16.75 C34.23 13.97, 6.83 2.82, -0.41 0.05 M-1.8 -1.56 C-1.51 -1.11, -0.4 1.91, 0.4 3.39 C1.2 4.87, -0.19 5.17, 2.98 7.31 C6.16 9.45, 12.95 13.39, 19.44 16.22 C25.93 19.06, 36.96 22.44, 41.94 24.33 C46.92 26.23, 47.3 27.72, 49.34 27.61 C51.38 27.51, 49.59 25.8, 54.16 23.72 C58.74 21.64, 70.1 17.82, 76.8 15.13 C83.5 12.45, 91.25 9.38, 94.37 7.6 C97.49 5.82, 95.38 5.44, 95.53 4.44 C95.67 3.44, 96.43 1.46, 95.23 1.6 C94.02 1.74, 95.59 2.36, 88.29 5.27 C80.98 8.18, 59.12 17.23, 51.41 19.06 C43.71 20.88, 50.67 19.49, 42.06 16.24 C33.44 12.98, 6.66 1.98, -0.3 -0.48" stroke="#000000" stroke-width="1" fill="none"></path></g></g><g stroke-linecap="round" transform="translate(832.4292571264941 353.25346305904617) rotate(0 10.300536673349768 4.539219550967715)"><path d="M5.54 0.23 C7.19 -0.4, 10.25 -0.73, 12.33 -0.39 C14.41 -0.04, 16.64 1.35, 18.01 2.31 C19.38 3.26, 20.77 4.4, 20.56 5.32 C20.36 6.25, 18.31 7.3, 16.78 7.88 C15.26 8.47, 13.5 8.63, 11.41 8.83 C9.31 9.03, 5.88 9.44, 4.2 9.08 C2.51 8.71, 1.76 7.77, 1.3 6.64 C0.83 5.51, 0.62 3.44, 1.42 2.27 C2.22 1.1, 5.09 -0.16, 6.07 -0.38 C7.05 -0.6, 7.3 0.83, 7.29 0.95 M9.63 -1.39 C11.85 -1.64, 13.77 -0.23, 15.55 0.67 C17.32 1.57, 19.49 2.91, 20.27 4 C21.06 5.08, 21.06 6.42, 20.27 7.17 C19.48 7.92, 17.38 8.39, 15.55 8.49 C13.73 8.6, 11.56 8.13, 9.32 7.79 C7.08 7.46, 3.84 6.82, 2.11 6.48 C0.38 6.13, -1.23 6.35, -1.05 5.72 C-0.87 5.09, 1.39 3.64, 3.19 2.69 C4.98 1.73, 8.78 0.25, 9.71 -0.03 C10.64 -0.31, 8.68 0.69, 8.78 1.01" stroke="none" stroke-width="0" fill="#ffff"></path><path d="M5.6 0.58 C7.25 0.22, 10.72 0.18, 12.89 0.31 C15.07 0.43, 17.25 0.42, 18.67 1.32 C20.09 2.22, 21.47 4.6, 21.42 5.69 C21.37 6.78, 20.19 7.47, 18.39 7.87 C16.59 8.27, 13.02 7.95, 10.62 8.11 C8.23 8.28, 5.68 9.25, 4.01 8.86 C2.34 8.48, 1.14 7.05, 0.6 5.83 C0.07 4.6, -0.28 2.62, 0.81 1.53 C1.91 0.44, 5.71 -0.38, 7.2 -0.7 C8.69 -1.03, 9.64 -0.63, 9.77 -0.42 M6.64 0.96 C8.54 0.71, 12.48 -0.67, 14.54 -0.18 C16.59 0.32, 18 2.73, 18.98 3.9 C19.96 5.07, 20.74 6.19, 20.39 6.85 C20.04 7.51, 18.62 7.27, 16.88 7.84 C15.14 8.42, 12.48 10.44, 9.97 10.3 C7.47 10.16, 3.6 7.83, 1.86 7.01 C0.11 6.19, -0.6 6.09, -0.48 5.35 C-0.36 4.61, 1.1 3.26, 2.58 2.57 C4.05 1.87, 7.19 1.34, 8.36 1.18 C9.53 1.03, 9.39 1.94, 9.6 1.64" stroke="#000000" stroke-width="1" fill="none"></path></g><g stroke-linecap="round"><g transform="translate(852.0883331586315 367.93319515374344) rotate(0 8.400959481357006 -0.10458118233077585)" fill-rule="evenodd"><path d="M0.47 1.14 L11.31 4.24 L17.81 -3.69 L1.2 0.51" stroke="none" stroke-width="0" fill="#ffff" fill-rule="evenodd"></path><path d="M-1.14 1.34 C3.3 0.32, 7.72 1.93, 13.4 4.11 M0.69 0.03 C2.85 0.26, 5.97 2.41, 13.45 4.58 M12.45 4.17 C14.07 1.84, 15.86 -0.53, 17.95 -4.42 M13 4.15 C14.44 2.84, 15.32 1.41, 17.64 -3.62 M17.22 -3.18 C11.45 -1.52, 4.39 0.33, 1.75 1.76 M16.98 -4.78 C11.41 -2.07, 3.77 -1.22, -0.45 -0.48 M0 0 C0 0, 0 0, 0 0 M0 0 C0 0, 0 0, 0 0" stroke="#000000" stroke-width="1" fill="none"></path></g></g><g stroke-linecap="round"><g transform="translate(858.0060134425217 344.34960932445614) rotate(0 5.40551648465231 5.1148136923725644)" fill-rule="evenodd"><path d="M-0.35 1.08 L1.61 4.7 L-4.81 6.28 L0.84 8.23 L4.81 10.76 L8.56 7.15 L15.46 5.7 L7.29 1.69 L9.44 -2.26 L2.7 2.91 L-1.68 0.15" stroke="none" stroke-width="0" fill="#ffff" fill-rule="evenodd"></path><path d="M0.38 -0.12 C0.24 1.08, 0.79 2.03, 1.55 3.34 M0.01 -0.06 C0.47 1.36, 1.43 2.86, 1.69 3.57 M1.5 3.34 C0.46 4.18, -0.56 4.8, -3.43 5.9 M1.48 3.82 C-0.03 4.78, -1.6 5.52, -2.97 6.69 M-2.92 6.61 C-1.41 6.7, 0.13 7.31, 3.26 7.52 M-3.43 6.61 C-1.72 6.55, -0.64 6.61, 2.53 6.82 M2.23 7.1 C3.84 8.19, 4.78 10.02, 6.43 11.28 M2.5 7.17 C3.97 8.22, 4.87 9.63, 5.79 10.9 M5.97 10.9 C6.59 9.35, 6.92 7.73, 6.82 6.67 M5.81 11.04 C6.26 10.03, 6.49 8.85, 6.82 6.47 M7.55 5.62 C9.18 5.39, 13.06 5.14, 13.35 5.23 M6.84 6 C9.6 5.84, 12 5.3, 13.9 5.32 M13.98 5.12 C11.46 4.17, 9.73 3.8, 8.31 3.89 M14.25 5.09 C12.2 4.42, 9.9 4.21, 8.03 3.49 M7.88 3.51 C8.31 1.85, 8.98 1.26, 9.5 -0.58 M8.08 3.3 C8.37 2.5, 8.76 1.31, 9.84 -1.05 M9.95 -0.97 C8.16 -0.67, 6.7 0.16, 4.2 1.97 M9.78 -0.96 C7.88 -0.19, 6.23 0.77, 4.62 1.71 M4.14 1.49 C2.76 1.41, 1.45 0.73, 0.15 0.42 M4.38 1.3 C2.78 0.73, 1.42 0.54, -0.07 0.17 M0 0 C0 0, 0 0, 0 0 M0 0 C0 0, 0 0, 0 0" stroke="#000000" stroke-width="1" fill="none"></path></g></g><g stroke-linecap="round"><g transform="translate(884.8377249868835 353.33005221595556) rotate(0 0.03657514700574893 4.44957705837254)" fill-rule="evenodd"><path d="M1.07 1.33 L10.97 3.89 L-0.88 7.6 L-9.44 4.32 L1.35 1.54 L0.83 1.71" stroke="none" stroke-width="0" fill="#912626" fill-rule="evenodd"></path><path d="M-0.35 -0.71 C4.36 1.16, 8.43 2.95, 10.27 5.51 M-0.19 -0.57 C4 2.02, 8.34 3.37, 10.97 3.86 M10.5 4.02 C8.68 4.85, 6.32 5.73, -1.67 9.61 M11.57 4.57 C8.46 6, 4.82 7.16, 0.08 8.57 M-0.12 9.53 C-3.04 8.62, -4.91 7.74, -10.13 3.55 M-0.12 9.2 C-3.1 7.62, -5.77 6.39, -11.5 4.7 M-10.91 4.52 C-8.09 2.84, -3.56 2.98, 1.03 0.62 M-10.75 4.79 C-8.57 3.12, -5.54 1.8, 0.14 0.34 M0 0 C0 0, 0 0, 0 0 M0 0 C0 0, 0 0, 0 0 M0 0 C0 0, 0 0, 0 0 M0 0 C0 0, 0 0, 0 0" stroke="#000000" stroke-width="1" fill="none"></path></g></g><g stroke-linecap="round"><g transform="translate(884.1195089623234 352.6178512341894) rotate(0 0.24350555486864778 4.700657737990497)"><path d="M-0.53 0.18 C-0.16 2.05, -0.01 3.25, 1.02 9.47 M-0.43 -0.07 C0.4 3.7, 0.29 7, -0.21 8.52" stroke="#000000" stroke-width="1" fill="none"></path></g></g><g transform="translate(385.5026440545457 196.39458996498) rotate(0 87 12.5)"><text x="0" y="18" font-family="Virgil, Segoe UI Emoji" font-size="20px" fill="#495057" text-anchor="start" style="white-space: pre;" direction="ltr">OpenResty/NCHAN</text></g><g stroke-linecap="round" transform="translate(326.2252592271221 133.95784080189756) rotate(0 24.104750766625386 24.081668195204088)"><path d="M0 0 C0 0, 0 0, 0 0 M0 0 C0 0, 0 0, 0 0 M0.13 12.04 C3 8.74, 5.87 5.44, 10.63 -0.03 M0.13 12.04 C3.43 8.25, 6.73 4.45, 10.63 -0.03 M0.27 24.08 C5.24 18.36, 10.21 12.64, 21.26 -0.07 M0.27 24.08 C6.68 16.7, 13.1 9.32, 21.26 -0.07 M-0.26 36.88 C9.63 25.5, 19.53 14.12, 31.89 -0.1 M-0.26 36.88 C11.5 23.35, 23.26 9.83, 31.89 -0.1 M0.53 48.16 C12.64 34.23, 24.75 20.3, 42.52 -0.14 M0.53 48.16 C13.56 33.17, 26.6 18.18, 42.52 -0.14 M11.16 48.13 C22.53 35.06, 33.89 21.98, 51.18 2.09 M11.16 48.13 C22.62 34.95, 34.07 21.77, 51.18 2.09 M21.79 48.09 C27.88 41.09, 33.97 34.08, 50.66 14.89 M21.79 48.09 C30.77 37.76, 39.76 27.43, 50.66 14.89 M32.42 48.06 C36.23 43.68, 40.03 39.31, 50.79 26.93 M32.42 48.06 C38.21 41.41, 43.99 34.76, 50.79 26.93 M42.4 48.78 C45.3 45.44, 48.2 42.11, 50.93 38.97 M42.4 48.78 C44.78 46.04, 47.16 43.3, 50.93 38.97 M0.3 48.43 C0.3 48.43, 0.3 48.43, 0.3 48.43 M0.3 48.43 C0.3 48.43, 0.3 48.43, 0.3 48.43 M12.34 48.29 C8.76 45.18, 5.17 42.06, 0.27 37.8 M12.34 48.29 C9.63 45.93, 6.91 43.57, 0.27 37.8 M24.39 48.16 C17.3 42.01, 10.22 35.85, 0.23 27.17 M24.39 48.16 C17.19 41.9, 9.99 35.65, 0.23 27.17 M36.43 48.03 C25.95 38.92, 15.47 29.81, 0.2 16.54 M36.43 48.03 C25.65 38.66, 14.88 29.3, 0.2 16.54 M48.47 47.89 C31.76 33.37, 15.06 18.85, 0.17 5.91 M48.47 47.89 C35.11 36.29, 21.76 24.68, 0.17 5.91 M48.43 37.26 C38.77 28.86, 29.11 20.46, 2.4 -2.76 M48.43 37.26 C35.3 25.85, 22.18 14.44, 2.4 -2.76 M48.4 26.63 C37.38 17.05, 26.36 7.47, 14.44 -2.89 M48.4 26.63 C41.26 20.43, 34.12 14.22, 14.44 -2.89 M48.36 16 C40.96 9.57, 33.56 3.14, 26.48 -3.02 M48.36 16 C41.45 10, 34.54 3.99, 26.48 -3.02 M48.33 5.37 C45.49 2.9, 42.64 0.43, 39.27 -2.5 M48.33 5.37 C45.76 3.14, 43.19 0.9, 39.27 -2.5" stroke="#ced4da" stroke-width="1" fill="none"></path><path d="M0 0 C16.58 0, 33.15 0, 48.21 0 M0 0 C11.66 0, 23.31 0, 48.21 0 M48.21 0 C48.21 13.97, 48.21 27.93, 48.21 48.16 M48.21 0 C48.21 9.92, 48.21 19.84, 48.21 48.16 M48.21 48.16 C36.87 48.16, 25.53 48.16, 0 48.16 M48.21 48.16 C29.17 48.16, 10.13 48.16, 0 48.16 M0 48.16 C0 37.96, 0 27.77, 0 0 M0 48.16 C0 29.8, 0 11.44, 0 0" stroke="#495057" stroke-width="2" fill="none"></path></g><g stroke-linecap="round"><g transform="translate(337.5500745370908 160.3985121708301) rotate(0 13.057663240045002 2.3641653048763374)" fill-rule="evenodd"><path d="M0 0 L23.5 -0.5 L24.58 -1.01 L23.59 -4.84 L25.16 -8.48 L27.59 -5.08 L27.26 -2.35 L31.17 -5.02 L34.22 -3.91 L32.4 -1.45 L28.41 0.44 L24.07 5.85 L17.99 11.16 L8.92 13.12 L0.13 12.3 L-2.93 10.08 L-5.46 6.72 L-8.13 0.83 L-7.66 -0.24 L-0.21 -0.01" stroke="none" stroke-width="0" fill="#0091e2" fill-rule="evenodd"></path><path d="M0 0 C3.3 -0.07, 15.72 -0.25, 19.82 -0.42 C23.92 -0.58, 23.95 -0.27, 24.58 -1.01 C25.21 -1.75, 23.5 -3.6, 23.59 -4.84 C23.69 -6.09, 24.5 -8.44, 25.16 -8.48 C25.83 -8.52, 27.24 -6.11, 27.59 -5.08 C27.94 -4.06, 26.67 -2.36, 27.26 -2.35 C27.86 -2.34, 30.01 -4.76, 31.17 -5.02 C32.33 -5.28, 34.01 -4.5, 34.22 -3.91 C34.42 -3.31, 33.37 -2.17, 32.4 -1.45 C31.44 -0.73, 30.81 -1.67, 28.41 0.44 C26.01 2.54, 22.71 9.19, 17.99 11.16 C13.28 13.14, 4.48 14.02, 0.13 12.3 C-4.23 10.57, -7.66 2.96, -8.13 0.83 C-8.6 -1.29, -4 -0.31, -2.68 -0.45 C-1.36 -0.59, -0.63 -0.09, -0.21 -0.01 M0 0 C3.3 -0.07, 15.72 -0.25, 19.82 -0.42 C23.92 -0.58, 23.95 -0.27, 24.58 -1.01 C25.21 -1.75, 23.5 -3.6, 23.59 -4.84 C23.69 -6.09, 24.5 -8.44, 25.16 -8.48 C25.83 -8.52, 27.24 -6.11, 27.59 -5.08 C27.94 -4.06, 26.67 -2.36, 27.26 -2.35 C27.86 -2.34, 30.01 -4.76, 31.17 -5.02 C32.33 -5.28, 34.01 -4.5, 34.22 -3.91 C34.42 -3.31, 33.37 -2.17, 32.4 -1.45 C31.44 -0.73, 30.81 -1.67, 28.41 0.44 C26.01 2.54, 22.71 9.19, 17.99 11.16 C13.28 13.14, 4.48 14.02, 0.13 12.3 C-4.23 10.57, -7.66 2.96, -8.13 0.83 C-8.6 -1.29, -4 -0.31, -2.68 -0.45 C-1.36 -0.59, -0.63 -0.09, -0.21 -0.01" stroke="#495057" stroke-width="2" fill="none"></path></g></g><g stroke-linecap="round" transform="translate(332.849650881254 154.5558598956457) rotate(0 2.0814945844491604 2.081494584449146)"><path d="M0 0 L4.16 0 L4.16 4.16 L0 4.16" stroke="none" stroke-width="0" fill="#0091e2"></path><path d="M0 0 C1.56 0, 3.13 0, 4.16 0 M0 0 C1.66 0, 3.32 0, 4.16 0 M4.16 0 C4.16 1.47, 4.16 2.95, 4.16 4.16 M4.16 0 C4.16 1.59, 4.16 3.18, 4.16 4.16 M4.16 4.16 C2.77 4.16, 1.38 4.16, 0 4.16 M4.16 4.16 C3.25 4.16, 2.33 4.16, 0 4.16 M0 4.16 C0 2.59, 0 1.02, 0 0 M0 4.16 C0 3.31, 0 2.46, 0 0" stroke="#495057" stroke-width="2" fill="none"></path></g><g stroke-linecap="round" transform="translate(338.0533858866625 154.36505935519256) rotate(0 2.0814945844491604 2.081494584449146)"><path d="M0 0 L4.16 0 L4.16 4.16 L0 4.16" stroke="none" stroke-width="0" fill="#0091e2"></path><path d="M0 0 C1.01 0, 2.03 0, 4.16 0 M0 0 C1.17 0, 2.33 0, 4.16 0 M4.16 0 C4.16 1.66, 4.16 3.31, 4.16 4.16 M4.16 0 C4.16 1.55, 4.16 3.1, 4.16 4.16 M4.16 4.16 C2.75 4.16, 1.34 4.16, 0 4.16 M4.16 4.16 C2.56 4.16, 0.96 4.16, 0 4.16 M0 4.16 C0 3.26, 0 2.36, 0 0 M0 4.16 C0 3.24, 0 2.32, 0 0" stroke="#495057" stroke-width="2" fill="none"></path></g><g stroke-linecap="round" transform="translate(343.49995741420366 154.45177919799102) rotate(0 2.0814945844491604 2.081494584449146)"><path d="M0 0 L4.16 0 L4.16 4.16 L0 4.16" stroke="none" stroke-width="0" fill="#0091e2"></path><path d="M0 0 C1.53 0, 3.07 0, 4.16 0 M0 0 C0.88 0, 1.76 0, 4.16 0 M4.16 0 C4.16 1.07, 4.16 2.14, 4.16 4.16 M4.16 0 C4.16 1.21, 4.16 2.42, 4.16 4.16 M4.16 4.16 C3.23 4.16, 2.29 4.16, 0 4.16 M4.16 4.16 C3.22 4.16, 2.29 4.16, 0 4.16 M0 4.16 C0 3.14, 0 2.13, 0 0 M0 4.16 C0 2.52, 0 0.87, 0 0" stroke="#495057" stroke-width="2" fill="none"></path></g><g stroke-linecap="round" transform="translate(348.92918264404767 154.19160220101213) rotate(0 2.0814945844491604 2.081494584449146)"><path d="M0 0 L4.16 0 L4.16 4.16 L0 4.16" stroke="none" stroke-width="0" fill="#0091e2"></path><path d="M0 0 C0.89 0, 1.78 0, 4.16 0 M0 0 C1.34 0, 2.67 0, 4.16 0 M4.16 0 C4.16 1.26, 4.16 2.52, 4.16 4.16 M4.16 0 C4.16 1.29, 4.16 2.57, 4.16 4.16 M4.16 4.16 C2.95 4.16, 1.74 4.16, 0 4.16 M4.16 4.16 C2.71 4.16, 1.26 4.16, 0 4.16 M0 4.16 C0 2.57, 0 0.97, 0 0 M0 4.16 C0 3.07, 0 1.98, 0 0" stroke="#495057" stroke-width="2" fill="none"></path></g><g stroke-linecap="round" transform="translate(354.0808758449127 154.26098156896546) rotate(0 2.0814945844491604 2.081494584449146)"><path d="M0 0 L4.16 0 L4.16 4.16 L0 4.16" stroke="none" stroke-width="0" fill="#0091e2"></path><path d="M0 0 C0.91 0, 1.82 0, 4.16 0 M0 0 C0.91 0, 1.82 0, 4.16 0 M4.16 0 C4.16 1.16, 4.16 2.33, 4.16 4.16 M4.16 0 C4.16 0.92, 4.16 1.85, 4.16 4.16 M4.16 4.16 C3.24 4.16, 2.32 4.16, 0 4.16 M4.16 4.16 C2.69 4.16, 1.22 4.16, 0 4.16 M0 4.16 C0 2.85, 0 1.53, 0 0 M0 4.16 C0 2.74, 0 1.32, 0 0" stroke="#495057" stroke-width="2" fill="none"></path></g><g stroke-linecap="round" transform="translate(337.9059409004631 149.3174439405492) rotate(0 2.0814945844491604 2.081494584449146)"><path d="M0 0 L4.16 0 L4.16 4.16 L0 4.16" stroke="none" stroke-width="0" fill="#0091e2"></path><path d="M0 0 C1.16 0, 2.32 0, 4.16 0 M0 0 C1.53 0, 3.06 0, 4.16 0 M4.16 0 C4.16 1.14, 4.16 2.27, 4.16 4.16 M4.16 0 C4.16 1.06, 4.16 2.12, 4.16 4.16 M4.16 4.16 C3.08 4.16, 2 4.16, 0 4.16 M4.16 4.16 C3.04 4.16, 1.92 4.16, 0 4.16 M0 4.16 C0 3.04, 0 1.91, 0 0 M0 4.16 C0 2.75, 0 1.33, 0 0" stroke="#495057" stroke-width="2" fill="none"></path></g><g stroke-linecap="round" transform="translate(343.3698616371428 149.38682621993172) rotate(0 2.0814945844491604 2.081494584449146)"><path d="M0 0 L4.16 0 L4.16 4.16 L0 4.16" stroke="none" stroke-width="0" fill="#0091e2"></path><path d="M0 0 C1.07 0, 2.13 0, 4.16 0 M0 0 C1.37 0, 2.75 0, 4.16 0 M4.16 0 C4.16 1.22, 4.16 2.44, 4.16 4.16 M4.16 0 C4.16 1.38, 4.16 2.77, 4.16 4.16 M4.16 4.16 C2.94 4.16, 1.72 4.16, 0 4.16 M4.16 4.16 C2.5 4.16, 0.84 4.16, 0 4.16 M0 4.16 C0 2.87, 0 1.58, 0 0 M0 4.16 C0 2.6, 0 1.04, 0 0" stroke="#495057" stroke-width="2" fill="none"></path></g><g stroke-linecap="round" transform="translate(348.9031646532047 149.386820397076) rotate(0 2.0814945844491604 2.081494584449146)"><path d="M0 0 L4.16 0 L4.16 4.16 L0 4.16" stroke="none" stroke-width="0" fill="#0091e2"></path><path d="M0 0 C0.85 0, 1.7 0, 4.16 0 M0 0 C1.26 0, 2.52 0, 4.16 0 M4.16 0 C4.16 1.1, 4.16 2.19, 4.16 4.16 M4.16 0 C4.16 1.2, 4.16 2.41, 4.16 4.16 M4.16 4.16 C2.95 4.16, 1.74 4.16, 0 4.16 M4.16 4.16 C2.58 4.16, 1 4.16, 0 4.16 M0 4.16 C0 3.3, 0 2.43, 0 0 M0 4.16 C0 2.96, 0 1.75, 0 0" stroke="#495057" stroke-width="2" fill="none"></path></g><g stroke-linecap="round" transform="translate(348.7210270716002 144.0790134283049) rotate(0 2.0814945844491604 2.081494584449146)"><path d="M0 0 L4.16 0 L4.16 4.16 L0 4.16" stroke="none" stroke-width="0" fill="#0091e2"></path><path d="M0 0 C1.36 0, 2.72 0, 4.16 0 M0 0 C1.25 0, 2.51 0, 4.16 0 M4.16 0 C4.16 1.43, 4.16 2.86, 4.16 4.16 M4.16 0 C4.16 0.88, 4.16 1.75, 4.16 4.16 M4.16 4.16 C2.75 4.16, 1.34 4.16, 0 4.16 M4.16 4.16 C2.98 4.16, 1.8 4.16, 0 4.16 M0 4.16 C0 2.78, 0 1.4, 0 0 M0 4.16 C0 2.72, 0 1.27, 0 0" stroke="#495057" stroke-width="2" fill="none"></path></g><g transform="translate(325.27587673500045 186.14841437556524) rotate(0 25.054133258745026 9.348557186098887)"><text x="0" y="13.697114372197777" font-family="Virgil, Segoe UI Emoji" font-size="14.957691497758212px" fill="#495057" text-anchor="start" style="white-space: pre;" direction="ltr">Docker</text></g><g stroke-linecap="round"><g transform="translate(626.421341590258 232.5292054411476) rotate(0 85.33356552382872 -9.962006687398656)"><path d="M-0.15 -0.46 C28.31 -3.46, 141.54 -14.9, 170.01 -17.96 M-1.69 -1.75 C27.23 -5.06, 143.77 -16.87, 172.36 -19.46" stroke="#000000" stroke-width="1" fill="none"></path></g><g transform="translate(626.421341590258 232.5292054411476) rotate(0 85.33356552382872 -9.962006687398656)"><path d="M26.08 -14.68 C22.49 -10.61, 14.73 -8.76, -1.43 -0.04 M26.44 -12.88 C16.02 -8.86, 5.89 -4.17, -0.91 -0.31" stroke="#000000" stroke-width="1" fill="none"></path></g><g transform="translate(626.421341590258 232.5292054411476) rotate(0 85.33356552382872 -9.962006687398656)"><path d="M28.17 5.73 C24.08 5.01, 15.83 2.07, -1.43 -0.04 M28.53 7.53 C17.42 3.93, 6.51 1.02, -0.91 -0.31" stroke="#000000" stroke-width="1" fill="none"></path></g><g transform="translate(626.421341590258 232.5292054411476) rotate(0 85.33356552382872 -9.962006687398656)"><path d="M144.53 -7.67 C153.6 -9.63, 158.52 -13.88, 171.08 -19.05 M144.89 -5.87 C154.71 -11.09, 164.72 -16.09, 171.6 -19.32" stroke="#000000" stroke-width="1" fill="none"></path></g><g transform="translate(626.421341590258 232.5292054411476) rotate(0 85.33356552382872 -9.962006687398656)"><path d="M142.54 -28.09 C152.1 -25.26, 157.47 -24.72, 171.08 -19.05 M142.91 -26.29 C153.38 -23.89, 164.12 -21.28, 171.6 -19.32" stroke="#000000" stroke-width="1" fill="none"></path></g></g><g stroke-linecap="round"><g transform="translate(627.7566328849422 355.1923114022391) rotate(0 86.9936572942936 10.216274441263693)"><path d="M-0.07 -0.11 C29.2 3.63, 146.24 18.2, 175.55 21.64 M-1.56 -1.21 C27.54 2.24, 145.1 16.02, 174.53 19.83" stroke="#000000" stroke-width="1" fill="none"></path></g><g transform="translate(627.7566328849422 355.1923114022391) rotate(0 86.9936572942936 10.216274441263693)"><path d="M29 -7.02 C21.47 -4.7, 11.04 -4.74, -0.22 0.86 M29.4 -7.78 C20.5 -4.89, 11.85 -3.03, 0.65 -0.68" stroke="#000000" stroke-width="1" fill="none"></path></g><g transform="translate(627.7566328849422 355.1923114022391) rotate(0 86.9936572942936 10.216274441263693)"><path d="M26.46 13.34 C19.81 9.65, 10.14 3.58, -0.22 0.86 M26.86 12.58 C18.57 9.29, 10.69 4.93, 0.65 -0.68" stroke="#000000" stroke-width="1" fill="none"></path></g><g transform="translate(627.7566328849422 355.1923114022391) rotate(0 86.9936572942936 10.216274441263693)"><path d="M145.12 26.37 C154.97 24.75, 161.84 20.73, 174.38 20.8 M145.53 25.61 C154.35 24.86, 163.53 22.62, 175.25 19.26" stroke="#000000" stroke-width="1" fill="none"></path></g><g transform="translate(627.7566328849422 355.1923114022391) rotate(0 86.9936572942936 10.216274441263693)"><path d="M147.62 6 C156.6 10.4, 162.73 12.4, 174.38 20.8 M148.02 5.24 C156.26 10.68, 164.67 14.65, 175.25 19.26" stroke="#000000" stroke-width="1" fill="none"></path></g></g><g transform="translate(655.0284196706448 239.08302652937928) rotate(0 60.50330047607429 46.54100036621095)"><text x="60.50330047607426" y="16.270500183105472" font-family="Virgil, Segoe UI Emoji" font-size="18.616400146484384px" fill="#495057" text-anchor="middle" style="white-space: pre;" direction="ltr">RESP </text><text x="60.50330047607426" y="39.541000366210945" font-family="Virgil, Segoe UI Emoji" font-size="18.616400146484384px" fill="#495057" text-anchor="middle" style="white-space: pre;" direction="ltr">Redis </text><text x="60.50330047607426" y="62.81150054931642" font-family="Virgil, Segoe UI Emoji" font-size="18.616400146484384px" fill="#495057" text-anchor="middle" style="white-space: pre;" direction="ltr">Serialization </text><text x="60.50330047607426" y="86.08200073242189" font-family="Virgil, Segoe UI Emoji" font-size="18.616400146484384px" fill="#495057" text-anchor="middle" style="white-space: pre;" direction="ltr">Protocol</text></g><g stroke-linecap="round" transform="translate(931.9797027323942 376.21037429298195) rotate(0 20.19461402273072 18.861007436323916)"><path d="M36.18 3.97 C39.42 6.6, 41.15 13.61, 41.31 17.71 C41.47 21.81, 39.96 25.44, 37.15 28.56 C34.34 31.68, 28.37 35.51, 24.43 36.44 C20.48 37.37, 17.35 35.46, 13.5 34.14 C9.65 32.82, 3.26 31.9, 1.33 28.51 C-0.61 25.13, 0.86 17.69, 1.9 13.81 C2.93 9.92, 4.18 7.24, 7.53 5.21 C10.89 3.17, 17.14 0.74, 22.03 1.6 C26.92 2.46, 33.98 8.21, 36.86 10.37 C39.74 12.53, 39.83 14.78, 39.32 14.56 M37.26 8.51 C40.17 10.76, 40.56 13.72, 39.84 17.67 C39.11 21.62, 35.35 29.38, 32.92 32.21 C30.5 35.04, 28.72 34.28, 25.27 34.66 C21.82 35.03, 16.53 35.82, 12.22 34.45 C7.9 33.09, 1.57 30.44, -0.62 26.48 C-2.82 22.53, -3.17 14.93, -0.98 10.7 C1.21 6.48, 8.4 2.72, 12.52 1.11 C16.64 -0.5, 20.27 0.19, 23.73 1.06 C27.2 1.92, 30.89 5.35, 33.31 6.29 C35.72 7.24, 37.81 6.82, 38.2 6.71" stroke="none" stroke-width="0" fill="#00008b"></path><path d="M17.59 1.42 C21.27 0.59, 26.55 0.81, 30.55 2.86 C34.54 4.9, 40.45 9.73, 41.56 13.7 C42.67 17.67, 39.11 22.91, 37.2 26.68 C35.28 30.45, 33.94 34.55, 30.08 36.3 C26.22 38.05, 18.48 38.63, 14.01 37.19 C9.53 35.74, 5.42 30.94, 3.23 27.63 C1.04 24.33, 0.42 21.39, 0.85 17.35 C1.29 13.3, 1.58 6.34, 5.85 3.37 C10.12 0.39, 21.99 -0.66, 26.47 -0.5 C30.95 -0.35, 32.75 3.94, 32.72 4.29 M8.45 1.33 C10.98 -1.32, 15.45 -1.52, 19.31 -0.63 C23.16 0.25, 28.35 4.13, 31.57 6.63 C34.79 9.12, 37.46 10.68, 38.61 14.33 C39.75 17.99, 40.64 24.96, 38.44 28.55 C36.24 32.13, 29.68 34.23, 25.43 35.83 C21.18 37.44, 16.63 39.18, 12.93 38.19 C9.24 37.19, 5.09 33.32, 3.25 29.85 C1.41 26.37, 1.47 21.53, 1.89 17.32 C2.31 13.12, 4.89 7.07, 5.78 4.6 C6.67 2.13, 6.83 2.35, 7.21 2.51" stroke="#495057" stroke-width="1" fill="none"></path></g><g stroke-linecap="round" transform="translate(926.8886235669999 369.8993572898424) rotate(0 25.28569318812498 25.455395826971483)"><path d="M37.78 1.09 C42.22 3.57, 45.8 11.87, 47.67 16.91 C49.54 21.96, 50.45 26.13, 49 31.35 C47.55 36.57, 43.32 45.11, 38.96 48.24 C34.6 51.37, 28.1 51.02, 22.82 50.13 C17.54 49.24, 11.35 46.58, 7.26 42.88 C3.17 39.18, -1.4 33.39, -1.73 27.94 C-2.06 22.49, 2.13 14.53, 5.29 10.16 C8.46 5.78, 10.76 1.49, 17.27 1.71 C23.77 1.93, 38.82 8.01, 44.33 11.46 C49.85 14.91, 50.64 22.59, 50.34 22.42" stroke="#495057" stroke-width="1.5" fill="none" stroke-dasharray="8 9"></path></g><g transform="translate(936.0525660647087 388.3120936046848) rotate(0 16.053869634876662 11.200374163867451)"><text x="0" y="16.400748327734902" font-family="Virgil, Segoe UI Emoji" font-size="17.549599808113964px" fill="#ffffff" text-anchor="start" style="white-space: pre;" direction="ltr">Lua</text></g><g stroke-linecap="round" transform="translate(953.0228299493568 382.1179472867888) rotate(0 5.091079165394319 5.091079165394319)"><path d="M10.18 5.09 C10.18 5.39, 10.16 5.68, 10.1 5.98 C10.05 6.27, 9.98 6.56, 9.88 6.83 C9.77 7.11, 9.65 7.38, 9.5 7.64 C9.35 7.89, 9.18 8.14, 8.99 8.36 C8.8 8.59, 8.59 8.8, 8.36 8.99 C8.14 9.18, 7.89 9.35, 7.64 9.5 C7.38 9.65, 7.11 9.77, 6.83 9.88 C6.56 9.98, 6.27 10.05, 5.98 10.1 C5.68 10.16, 5.39 10.18, 5.09 10.18 C4.8 10.18, 4.5 10.16, 4.21 10.1 C3.92 10.05, 3.63 9.98, 3.35 9.88 C3.07 9.77, 2.8 9.65, 2.55 9.5 C2.29 9.35, 2.04 9.18, 1.82 8.99 C1.59 8.8, 1.38 8.59, 1.19 8.36 C1 8.14, 0.83 7.89, 0.68 7.64 C0.53 7.38, 0.41 7.11, 0.31 6.83 C0.21 6.56, 0.13 6.27, 0.08 5.98 C0.03 5.68, 0 5.39, 0 5.09 C0 4.8, 0.03 4.5, 0.08 4.21 C0.13 3.92, 0.21 3.63, 0.31 3.35 C0.41 3.07, 0.53 2.8, 0.68 2.55 C0.83 2.29, 1 2.04, 1.19 1.82 C1.38 1.59, 1.59 1.38, 1.82 1.19 C2.04 1, 2.29 0.83, 2.55 0.68 C2.8 0.53, 3.07 0.41, 3.35 0.31 C3.63 0.21, 3.92 0.13, 4.21 0.08 C4.5 0.03, 4.8 0, 5.09 0 C5.39 0, 5.68 0.03, 5.98 0.08 C6.27 0.13, 6.56 0.21, 6.83 0.31 C7.11 0.41, 7.38 0.53, 7.64 0.68 C7.89 0.83, 8.14 1, 8.36 1.19 C8.59 1.38, 8.8 1.59, 8.99 1.82 C9.18 2.04, 9.35 2.29, 9.5 2.55 C9.65 2.8, 9.77 3.07, 9.88 3.35 C9.98 3.63, 10.05 3.92, 10.1 4.21 C10.16 4.5, 10.17 4.94, 10.18 5.09 C10.2 5.24, 10.2 4.94, 10.18 5.09" stroke="none" stroke-width="0" fill="#ffffff"></path><path d="M10.18 5.09 C10.18 5.39, 10.16 5.68, 10.1 5.98 C10.05 6.27, 9.98 6.56, 9.88 6.83 C9.77 7.11, 9.65 7.38, 9.5 7.64 C9.35 7.89, 9.18 8.14, 8.99 8.36 C8.8 8.59, 8.59 8.8, 8.36 8.99 C8.14 9.18, 7.89 9.35, 7.64 9.5 C7.38 9.65, 7.11 9.77, 6.83 9.88 C6.56 9.98, 6.27 10.05, 5.98 10.1 C5.68 10.16, 5.39 10.18, 5.09 10.18 C4.8 10.18, 4.5 10.16, 4.21 10.1 C3.92 10.05, 3.63 9.98, 3.35 9.88 C3.07 9.77, 2.8 9.65, 2.55 9.5 C2.29 9.35, 2.04 9.18, 1.82 8.99 C1.59 8.8, 1.38 8.59, 1.19 8.36 C1 8.14, 0.83 7.89, 0.68 7.64 C0.53 7.38, 0.41 7.11, 0.31 6.83 C0.21 6.56, 0.13 6.27, 0.08 5.98 C0.03 5.68, 0 5.39, 0 5.09 C0 4.8, 0.03 4.5, 0.08 4.21 C0.13 3.92, 0.21 3.63, 0.31 3.35 C0.41 3.07, 0.53 2.8, 0.68 2.55 C0.83 2.29, 1 2.04, 1.19 1.82 C1.38 1.59, 1.59 1.38, 1.82 1.19 C2.04 1, 2.29 0.83, 2.55 0.68 C2.8 0.53, 3.07 0.41, 3.35 0.31 C3.63 0.21, 3.92 0.13, 4.21 0.08 C4.5 0.03, 4.8 0, 5.09 0 C5.39 0, 5.68 0.03, 5.98 0.08 C6.27 0.13, 6.56 0.21, 6.83 0.31 C7.11 0.41, 7.38 0.53, 7.64 0.68 C7.89 0.83, 8.14 1, 8.36 1.19 C8.59 1.38, 8.8 1.59, 8.99 1.82 C9.18 2.04, 9.35 2.29, 9.5 2.55 C9.65 2.8, 9.77 3.07, 9.88 3.35 C9.98 3.63, 10.05 3.92, 10.1 4.21 C10.16 4.5, 10.17 4.94, 10.18 5.09 C10.2 5.24, 10.2 4.94, 10.18 5.09" stroke="#ffffff" stroke-width="1.5" fill="none" stroke-dasharray="8 9"></path></g><g stroke-linecap="round" transform="translate(964.9020146686105 370.23876256753493) rotate(0 5.091079165394262 5.091079165394319)"><path d="M10.18 5.09 C10.18 5.39, 10.16 5.68, 10.1 5.98 C10.05 6.27, 9.98 6.56, 9.88 6.83 C9.77 7.11, 9.65 7.38, 9.5 7.64 C9.35 7.89, 9.18 8.14, 8.99 8.36 C8.8 8.59, 8.59 8.8, 8.36 8.99 C8.14 9.18, 7.89 9.35, 7.64 9.5 C7.38 9.65, 7.11 9.77, 6.83 9.88 C6.56 9.98, 6.27 10.05, 5.98 10.1 C5.68 10.16, 5.39 10.18, 5.09 10.18 C4.8 10.18, 4.5 10.16, 4.21 10.1 C3.92 10.05, 3.63 9.98, 3.35 9.88 C3.07 9.77, 2.8 9.65, 2.55 9.5 C2.29 9.35, 2.04 9.18, 1.82 8.99 C1.59 8.8, 1.38 8.59, 1.19 8.36 C1 8.14, 0.83 7.89, 0.68 7.64 C0.53 7.38, 0.41 7.11, 0.31 6.83 C0.21 6.56, 0.13 6.27, 0.08 5.98 C0.03 5.68, 0 5.39, 0 5.09 C0 4.8, 0.03 4.5, 0.08 4.21 C0.13 3.92, 0.21 3.63, 0.31 3.35 C0.41 3.07, 0.53 2.8, 0.68 2.55 C0.83 2.29, 1 2.04, 1.19 1.82 C1.38 1.59, 1.59 1.38, 1.82 1.19 C2.04 1, 2.29 0.83, 2.55 0.68 C2.8 0.53, 3.07 0.41, 3.35 0.31 C3.63 0.21, 3.92 0.13, 4.21 0.08 C4.5 0.03, 4.8 0, 5.09 0 C5.39 0, 5.68 0.03, 5.98 0.08 C6.27 0.13, 6.56 0.21, 6.83 0.31 C7.11 0.41, 7.38 0.53, 7.64 0.68 C7.89 0.83, 8.14 1, 8.36 1.19 C8.59 1.38, 8.8 1.59, 8.99 1.82 C9.18 2.04, 9.35 2.29, 9.5 2.55 C9.65 2.8, 9.77 3.07, 9.88 3.35 C9.98 3.63, 10.05 3.92, 10.1 4.21 C10.16 4.5, 10.17 4.94, 10.18 5.09 C10.2 5.24, 10.2 4.94, 10.18 5.09" stroke="none" stroke-width="0" fill="#00008b"></path><path d="M10.18 5.09 C10.18 5.39, 10.16 5.68, 10.1 5.98 C10.05 6.27, 9.98 6.56, 9.88 6.83 C9.77 7.11, 9.65 7.38, 9.5 7.64 C9.35 7.89, 9.18 8.14, 8.99 8.36 C8.8 8.59, 8.59 8.8, 8.36 8.99 C8.14 9.18, 7.89 9.35, 7.64 9.5 C7.38 9.65, 7.11 9.77, 6.83 9.88 C6.56 9.98, 6.27 10.05, 5.98 10.1 C5.68 10.16, 5.39 10.18, 5.09 10.18 C4.8 10.18, 4.5 10.16, 4.21 10.1 C3.92 10.05, 3.63 9.98, 3.35 9.88 C3.07 9.77, 2.8 9.65, 2.55 9.5 C2.29 9.35, 2.04 9.18, 1.82 8.99 C1.59 8.8, 1.38 8.59, 1.19 8.36 C1 8.14, 0.83 7.89, 0.68 7.64 C0.53 7.38, 0.41 7.11, 0.31 6.83 C0.21 6.56, 0.13 6.27, 0.08 5.98 C0.03 5.68, 0 5.39, 0 5.09 C0 4.8, 0.03 4.5, 0.08 4.21 C0.13 3.92, 0.21 3.63, 0.31 3.35 C0.41 3.07, 0.53 2.8, 0.68 2.55 C0.83 2.29, 1 2.04, 1.19 1.82 C1.38 1.59, 1.59 1.38, 1.82 1.19 C2.04 1, 2.29 0.83, 2.55 0.68 C2.8 0.53, 3.07 0.41, 3.35 0.31 C3.63 0.21, 3.92 0.13, 4.21 0.08 C4.5 0.03, 4.8 0, 5.09 0 C5.39 0, 5.68 0.03, 5.98 0.08 C6.27 0.13, 6.56 0.21, 6.83 0.31 C7.11 0.41, 7.38 0.53, 7.64 0.68 C7.89 0.83, 8.14 1, 8.36 1.19 C8.59 1.38, 8.8 1.59, 8.99 1.82 C9.18 2.04, 9.35 2.29, 9.5 2.55 C9.65 2.8, 9.77 3.07, 9.88 3.35 C9.98 3.63, 10.05 3.92, 10.1 4.21 C10.16 4.5, 10.17 4.94, 10.18 5.09 C10.2 5.24, 10.2 4.94, 10.18 5.09" stroke="#00008b" stroke-width="1.5" fill="none" stroke-dasharray="8 9"></path></g><g transform="translate(246.78666841819938 10) rotate(0 227 45.5)"><text x="227" y="32.5" font-family="Virgil, Segoe UI Emoji" font-size="36px" fill="#40c057" text-anchor="middle" style="white-space: pre;" direction="ltr">High level look at a </text><text x="227" y="78" font-family="Virgil, Segoe UI Emoji" font-size="36px" fill="#40c057" text-anchor="middle" style="white-space: pre;" direction="ltr">mappist-metric server app</text></g><g stroke-linecap="round" transform="translate(11.23091710180256 165.93563350884114) rotate(0 74.5 17.986311528868242)"><path d="M0 0 C0 0, 0 0, 0 0 M0 0 C0 0, 0 0, 0 0 M0.03 5.82 C1.13 3.96, 3.39 3.53, 5.47 0.04 M-0.15 6.78 C1.44 4.04, 2.88 2.57, 4.8 0.53 M-0.15 13.04 C3.31 7.31, 4.95 4.83, 10.43 0.21 M-0.18 12.01 C4.26 8.69, 7.52 3.99, 10.63 -0.32 M-1.07 19.28 C7.08 12.13, 10.39 4.76, 14.98 -0.45 M-0.3 19.31 C6.59 11.45, 11.8 4.53, 15.84 -0.14 M1.75 24.73 C6.1 17.21, 13.54 8.08, 19.92 -1.67 M-0.58 23.7 C7.24 15.37, 15.74 7.97, 21.07 0.19 M1.33 29.01 C8.04 18.84, 18.38 9.57, 28.09 0.45 M-0.83 31.27 C8.85 22.32, 15.14 12.57, 25.65 -0.21 M-0.47 35.86 C11.59 25.91, 19.4 11.37, 30.78 1.39 M0.63 36.84 C8.37 25.87, 17.65 16.87, 30.99 0.38 M7.1 36.16 C18.26 21.94, 30.34 9.56, 36.68 -0.87 M5.28 36.03 C18.11 22.77, 28.99 8.57, 36.68 -0.59 M11.43 36.83 C21.37 21.73, 35.2 11.33, 41.24 -1.07 M11.29 36.46 C18.12 28.43, 24.86 22, 42.2 0.06 M15.16 35.59 C26.48 20.69, 39.73 10.58, 47.66 0.2 M16.49 35.77 C28.71 22.14, 40.87 8, 47.05 0.41 M22.46 37.73 C34.41 21.94, 44.77 7.14, 52.31 1.23 M21.7 36.65 C30.21 26.38, 38.53 16.63, 52.39 -0.54 M25.89 37 C34.95 24.08, 46.43 15.35, 57.65 2.07 M25.95 37.07 C34.27 28.97, 41.46 20.95, 57.25 0.32 M33.88 34.34 C39.99 27.83, 49.05 16.77, 65.7 1.32 M33.07 35.26 C39.05 28.33, 46.53 21.37, 64.14 0.19 M37.64 34.79 C42.88 26.45, 53.83 20.54, 66.97 -1.06 M36.91 35.86 C44.21 29.48, 50.87 21.74, 69.2 -0.45 M42.63 34.22 C53.73 23.61, 66 11.17, 73.86 1.04 M41.97 34.99 C50.68 26.81, 57.99 19.22, 73.91 0.19 M47.47 36.19 C58.59 23.86, 69.52 9.77, 77.67 -1.23 M48.54 36.39 C54.77 28.27, 60.95 20.36, 79.18 0.36 M55.4 34.72 C64.64 22.63, 78.45 10.76, 85.96 1.01 M53.39 36.43 C63.84 23.01, 74.69 10.5, 85.06 -1.21 M57.18 35.17 C70.64 23.88, 78.94 10.22, 91.54 1.32 M58.88 36.3 C69.5 22.84, 81.75 9.68, 90.87 -0.14 M62.57 36.97 C71.43 28.28, 77.01 18.56, 93.88 -1.38 M63.69 35.01 C70.44 27.76, 76.02 20.67, 94.86 -0.35 M67.26 34.5 C79.12 24.04, 90.75 13.79, 100.05 0.11 M69.88 35.57 C77.87 26.52, 88.14 15.72, 100.35 1.04 M76.28 35.87 C84 24.94, 92.75 15.5, 106.2 -1.97 M75.63 36.01 C84.03 23.62, 94.39 11.31, 105.43 -0.19 M78.95 35.74 C89.66 24.17, 101.39 12.21, 110.43 0.48 M80.36 35.54 C88.7 27.21, 95.89 16.49, 111.08 -0.26 M83.68 34.87 C92.84 28.2, 102.24 15.19, 117.6 0.97 M84.71 36.35 C91.04 27.99, 98.69 20.08, 116.17 -0.58 M92.18 37.21 C100.54 24.41, 108.73 18.01, 123.58 1.5 M91.04 35.93 C99.76 25.78, 108.87 15.08, 122.91 -0.35 M95.66 36.93 C104.39 26.97, 112.94 12.73, 125.42 1.65 M94.79 36.52 C105.35 25.72, 112.65 16.5, 127.29 -0.27 M99.62 36.02 C107.34 30.05, 112.44 19.21, 132.17 -1.93 M101.53 35.8 C108.25 27.49, 116.72 17.38, 133.07 -0.67 M104.81 35.06 C113.3 26.88, 122.05 18.97, 135.77 1.36 M105.12 36.15 C115.19 25.44, 124.48 16.61, 136.96 0.59 M112.65 38.07 C125.42 20.88, 137.38 8.26, 142.55 -1.17 M111.34 36.58 C121.75 24.84, 129.56 14.89, 143.22 -0.81 M118.14 35.3 C127.56 24.53, 137.32 12.63, 148.11 -0.62 M116.04 35.96 C126 25.95, 136.17 14.77, 148.88 0.48 M123.36 36.03 C131.42 27.26, 138.22 19.37, 150.84 2.5 M122.85 37.04 C129.97 27.11, 137.13 18.11, 152.4 2.79 M126.35 35.45 C138.66 26.7, 144.23 15.27, 153.43 8.11 M127.26 35.56 C135.72 26.11, 146.5 15.5, 151.44 8.54 M134.58 35.36 C138.05 30.03, 143.35 27.24, 150.28 14.84 M132.35 36.33 C139.31 30.14, 144.33 22.37, 151.47 14.79 M137.87 35.11 C143.58 31, 149.44 25.87, 150.57 21.88 M138.88 36.38 C141.35 32.37, 143.47 29.32, 151.05 20.42 M142.53 36.19 C145.48 32.45, 149.59 28.97, 151.94 28.06 M143.23 36.59 C147.17 32.64, 149.92 28.21, 151.24 26.48 M148.63 36.71 C149.76 35.47, 150.56 34.65, 151.99 32.6 M148.52 36.48 C149.37 35.3, 150.34 34.45, 151.73 32.69" stroke="#ced4da" stroke-width="0.5" fill="none"></path><path d="M0.81 1.8 C57.59 1.55, 115.67 2.2, 147.79 -1.15 M-0.12 0.11 C42.74 1.35, 86.14 0.45, 149.91 -0.92 M147.7 1.68 C147.93 12.69, 147.36 23.86, 148.72 37.42 M149.59 0.58 C149.55 7.21, 148.92 14.59, 148.63 35.83 M147.82 35.57 C95.99 37.62, 44.29 34.84, -1.7 37.03 M149.41 36.66 C117.85 36.25, 87.02 37.34, -0.88 35.51 M-1.13 36.3 C1.84 26.17, 1.37 17.91, 1.9 1.04 M0.8 36.53 C-0.21 24.09, 0.75 13.03, 0.97 -0.76" stroke="#495057" stroke-width="1" fill="none"></path></g><g stroke-linecap="round" transform="translate(12.429549922266233 212.14433344569142) rotate(0 74.31981188300279 17.986311528868242)"><path d="M0 0 C0 0, 0 0, 0 0 M0 0 C0 0, 0 0, 0 0 M0.52 5.71 C1.24 4.56, 1.57 3.93, 5.26 1.06 M0.1 6.13 C0.9 4.6, 2.74 3.11, 4.94 0.56 M-0.99 13.44 C2.96 6.72, 7.62 5.56, 9.27 -0.07 M-0.16 12.29 C4.49 7.27, 7.8 3.36, 10.99 -0.46 M-0.14 17.73 C3.84 12.69, 7.36 8.84, 14.69 1.11 M-0.91 19.43 C5.19 12.07, 9.41 5.94, 15.25 0.85 M-0.04 25.97 C8.51 15.45, 14.27 9.75, 22.14 1.09 M-0.69 24.14 C6.59 18.08, 11.16 12.66, 21.88 0.61 M-0.13 31.87 C8.97 18.88, 18.81 11.3, 28.09 -1.55 M0.03 29.63 C8.53 19.72, 18.3 9.5, 27.06 0.04 M-0.11 37.44 C8.74 23.39, 18.63 13.45, 30.48 1.79 M-0.58 37.12 C8.25 26.49, 17.75 16.41, 31.06 -0.63 M5.88 38.17 C12.57 26.23, 19.9 18.58, 35.28 -1.52 M5.6 36.99 C16.76 23.75, 30.34 8.21, 37.54 -0.12 M11.05 37.88 C24.91 23.05, 35.89 7.45, 43.96 1.53 M10.54 36.95 C22.22 23.93, 30.74 12.36, 42.17 -1.05 M16.54 37.5 C24.43 27.67, 31.59 18.25, 48.4 -1.65 M16.01 37.06 C25.43 25.84, 34.96 15.04, 47.82 0.17 M19.7 37.86 C27.76 27.39, 35.79 22.06, 54.34 1.59 M21.97 35.83 C30.12 25.15, 38.54 15.15, 53.17 0.44 M26.96 34.56 C38.64 22.85, 49.99 11.36, 56.3 1.97 M26.68 37.31 C39.86 22.76, 52.22 8.54, 57.92 0.06 M31.32 34.7 C40.06 26, 48.1 16.74, 65.06 -0.95 M32.41 35.22 C39.49 28.18, 47.73 19.73, 63.39 -0.18 M37.23 35.78 C48.35 26.22, 57.91 10.81, 70.54 2.06 M37.6 36 C43.47 27.42, 50.39 19.42, 69.74 1.09 M42.09 34.47 C51.04 25.23, 58.96 17.95, 73.3 0.74 M42.47 36.95 C49.71 28.26, 56.17 21.08, 74.57 -1.09 M49.15 37.4 C60.79 22.44, 73.53 8.7, 79.41 2.11 M47.22 37.28 C58.88 22.59, 70.61 9.41, 80.09 0.11 M52.94 34.03 C64.22 20.66, 77.89 9.17, 83.96 1.29 M53.64 36.22 C61.86 26.31, 70.1 17.08, 85.81 0.38 M60.24 35.41 C69.62 22.75, 80.66 9.91, 89.92 -1.63 M59.32 36.14 C65.95 28.23, 74.58 17.95, 89.65 0.38 M63.49 35.03 C73.33 25.39, 80.82 14.39, 95.65 1.12 M63.27 36.58 C76.98 22.45, 89.18 7.6, 96.62 -1.21 M69.74 35.6 C81.81 25.13, 91.34 10.25, 101.79 1.9 M70.1 35.43 C78.33 24.31, 89.42 13.6, 99.99 0.48 M74.09 33.89 C83.81 27.84, 88.53 16.72, 106.71 0.41 M75.65 34.93 C81.28 27.48, 88.27 18.92, 105.91 -0.47 M80.61 35.53 C89.74 24.99, 100.56 9.94, 109.46 0.54 M79.16 36.86 C87.13 26.77, 95.61 18.9, 110.6 -0.62 M83.14 36.57 C93.09 27.99, 98.56 23.35, 116.53 1.89 M84.27 37.3 C95.57 23.43, 105.81 11.11, 116.32 0.62 M89.52 34.55 C99.33 26.47, 105.51 17.37, 120.1 0.88 M90.47 36.01 C102.45 22.62, 113.71 9.14, 121.83 -0.62 M95.76 37.55 C102.86 29.49, 110.94 18.66, 126.2 1.8 M95.5 36.8 C107.06 23.1, 117.78 10.44, 127.83 0.66 M100.88 35.78 C111.28 24.41, 124.24 12.12, 131.58 -1.67 M101.4 35.32 C109.13 27.65, 116.92 18.31, 131.93 -0.83 M105.79 38.36 C115.03 25.8, 124.99 14.09, 136.55 0.43 M105.62 37.19 C118.94 21.79, 130.52 8.77, 136.85 0.4 M112.79 36.14 C117.63 26.26, 127.91 19.54, 142.5 -0.94 M111.7 37.07 C121.48 24.7, 131.25 13.94, 144.04 0.77 M116.45 34.53 C130.45 20.81, 141.22 9.07, 148.79 1.09 M116.45 36.79 C122.93 29.44, 130.94 22.29, 147.86 0.67 M123.09 36.31 C127.19 26.95, 134.67 19.04, 152.22 0.29 M122.53 36.41 C132.08 25.59, 140.58 13.94, 151.24 2.85 M125.69 38.41 C132.6 27.58, 141.5 19.02, 150.63 9.18 M127.71 36.33 C135.3 26.52, 144.56 16.55, 152.49 8.47 M131.34 34.76 C138.82 31.01, 143.2 23.35, 151.56 16.05 M133.43 36.36 C139.46 28.57, 148.47 19.94, 152.22 15.45 M136.17 37.1 C144.09 30.27, 145.95 24.01, 152.64 21.06 M138.03 35.86 C143.17 30.59, 148.76 25.17, 150.91 20.83 M144.31 37.06 C145.36 33.07, 148.98 30.5, 151.24 26.12 M143.43 36.48 C145.57 33.52, 146.65 32.49, 150.96 27.22" stroke="#ced4da" stroke-width="0.5" fill="none"></path><path d="M1.92 1.48 C53.68 0.35, 106.4 -1.68, 149.51 -0.7 M-0.98 0.97 C50.61 0.65, 99.7 0.38, 148.19 -0.33 M146.84 -1.91 C149.86 10.82, 149.85 23.69, 149.67 37.09 M148.03 -0.97 C149.02 10.03, 149.02 20.73, 147.87 36.11 M150.59 36.3 C110.39 36.81, 70.39 38.56, -0.98 35.06 M148.96 35.09 C111.15 36.41, 72.99 37.72, 1 36.03 M0.51 35.04 C0.82 26.23, -1.25 16.45, -2 -0.55 M0.66 35.31 C0.11 21.85, -0.91 9.47, -0.76 -0.38" stroke="#000000" stroke-width="1" fill="none"></path></g><g transform="translate(16.23091710180256 171.42194503770938) rotate(0 69.5 12.5)"><text x="69.5" y="18" font-family="Virgil, Segoe UI Emoji" font-size="20px" fill="#495057" text-anchor="middle" style="white-space: pre;" direction="ltr">HTTP POST</text></g><g transform="translate(34.90168161196493 221.28880681241623) rotate(0 51 12.5)"><text x="51" y="18" font-family="Virgil, Segoe UI Emoji" font-size="20px" fill="#495057" text-anchor="middle" style="white-space: pre;" direction="ltr">WebSocket</text></g><g stroke-linecap="round" transform="translate(10.801367179536328 286.4919799922827) rotate(0 74.5 30)"><path d="M0 0 C0 0, 0 0, 0 0 M0 0 C0 0, 0 0, 0 0 M0.02 6.72 C0.78 5.11, 3.51 2.86, 4.35 -0.31 M-0.62 6.15 C0.62 4.7, 1.95 3.18, 4.78 0.5 M0.82 11.07 C4.29 8.82, 5.42 3.93, 9.22 -0.06 M-0.09 12.56 C2.62 8.66, 6.31 4.03, 9.84 0.55 M-1.14 19.3 C3.96 16.02, 7.83 10.74, 15.46 0.08 M-0.99 17.76 C4.34 12.52, 10.94 7.15, 15.66 0.21 M-0.17 24.56 C8.35 14.56, 15.54 10.61, 20.03 -0.7 M0.73 24.73 C6.86 16.41, 12.64 9.15, 21.74 -0.72 M0.05 28.6 C7.86 24.3, 12.65 14.07, 25.11 1.51 M0.76 31.1 C9.16 20.74, 16.67 12.05, 26.23 -0.57 M1.44 36.43 C7.84 27.56, 20.91 13.16, 32.94 0.52 M-1.15 36.34 C9.63 25.72, 22.21 11.95, 30.98 0.04 M-1.48 42.44 C10.14 30.49, 20.45 18.77, 35.1 0.28 M-0.16 42.55 C9.05 31.87, 17.65 21.63, 36.17 -0.24 M-0.73 50.9 C14.17 30.97, 32.5 14.65, 42.51 1.02 M-0.17 48.11 C9.56 38.62, 19.1 27.42, 42.65 -1.06 M-1.46 54.87 C14.15 39.14, 27.83 24.73, 47 -0.54 M-0.16 54.79 C14.37 38.51, 29.93 21.54, 46.81 0.99 M0.25 59.65 C20.8 36.94, 39.65 12.7, 51.42 -1.02 M1.33 60.5 C19.86 37.32, 40.74 14.81, 52.9 -1.16 M5.43 58.66 C19.24 44.56, 35.22 30.31, 59.14 1.82 M6.48 61.33 C16.27 48.48, 26.31 35.51, 57.87 0.3 M13.27 59.5 C28.92 41.15, 47.85 20.42, 64.15 -0.74 M10.56 60.83 C32.32 36.06, 53.55 12.33, 63.73 0.5 M17.05 59.3 C28.97 44.62, 45.33 26.84, 68.61 -0.17 M16.09 59.59 C36.54 37.34, 57.05 15.01, 68.4 -0.73 M22.98 58.89 C38.59 38.05, 58.41 18.08, 72.94 -0.53 M21.04 60.66 C33.85 45.4, 45.73 30.9, 74.02 -0.45 M25.76 61.06 C40.09 47.16, 51.32 34.7, 81.33 1.72 M26.6 59.96 C39.53 45.41, 52.87 29.98, 79.84 0.84 M32.64 58.66 C47 42.71, 60.69 30.62, 83.84 -0.07 M32.53 59.66 C48.65 41.62, 64.01 22.7, 84.51 -0.46 M38.98 60.88 C53.09 40.65, 72.03 23.22, 89.96 1.41 M37.04 60.64 C53.2 42.45, 70.13 23.42, 90.97 0.39 M44.31 61.36 C60.2 41.67, 72.24 24.12, 94.65 1.67 M44.11 59.85 C61.96 39.31, 77.98 19.72, 94.77 -1.12 M47.9 60.42 C61.43 42.26, 77.91 27.52, 99.95 0.55 M47.33 60.75 C61.23 43.82, 74.87 28.38, 100.92 0.64 M52.15 62 C73 38.8, 90.06 17.7, 104.98 0.44 M52.59 61.43 C68.03 43.11, 85.49 24.76, 106.25 -0.12 M57.48 60.07 C75.79 43.22, 90.55 23.4, 111.55 -1.51 M59.21 61.3 C74.15 43.56, 88.12 26.56, 112.21 0.74 M63.1 59.08 C81.16 41.2, 97.44 20.63, 117.55 1.49 M64.09 60.71 C79.79 40.35, 98.08 21.36, 116.61 0.51 M68.48 60.92 C78.75 46.55, 92.52 35.43, 121.78 -1.66 M69.32 60.16 C87.34 41.08, 105.22 19.28, 121.7 -0.79 M74.89 61.06 C84.82 47.46, 98.98 35.89, 126.82 -1.51 M75.12 61.66 C93.01 40.97, 111.36 19.51, 127.33 0.35 M79.44 58.79 C89.62 48.1, 102.57 35.76, 134.42 0.87 M80.13 61.14 C97.13 40.7, 113.11 22.96, 131.6 -1.03 M84.69 61.36 C103.54 38.86, 121.01 15.9, 137.07 0.1 M84.24 59.87 C99.92 43.05, 113.92 27.43, 136.77 0.14 M92.67 62.21 C110.09 38.65, 125.42 20.32, 142.07 -1.37 M90.97 60.88 C102.88 45.1, 116.2 32.46, 142.51 0.31 M94.46 61.13 C105.22 47.41, 117.43 35.73, 147.04 0.96 M96.32 60.35 C107.64 47.12, 120.47 32.65, 147.82 -0.25 M100.26 58.45 C114.11 43.72, 129.37 27.43, 150.11 4.1 M101.06 59.98 C114.89 46.3, 126.52 30.67, 152.38 2.2 M104.94 59.23 C114.23 51.14, 123.92 39.7, 152.01 8.72 M105.62 60.47 C119.73 46.2, 133.34 30.8, 151.01 8.27 M110.09 59.47 C125.33 44.44, 137.77 29.75, 152.13 14.8 M112.43 59.86 C123.96 47.63, 134.38 33.91, 152.96 14.28 M117.64 62.26 C126.59 51.36, 136.94 38.06, 152.19 20.92 M116.75 61.01 C129.88 45.83, 143.01 30.98, 151.88 19.81 M123.83 59.97 C131.07 47.75, 142.95 38.48, 150.93 25.35 M123.02 59.89 C133.07 48.81, 144.24 35.84, 151.78 27.97 M128.86 62.5 C135.21 50.81, 141.68 42.57, 150.94 32.57 M127.69 61.13 C135.71 52.67, 141.93 43.16, 152.17 32.14 M134.9 59.36 C139.35 53.46, 142.5 48.25, 151.52 37.64 M133.59 60.3 C138.23 54.71, 144.12 47.58, 152.17 39.62 M139.69 59.98 C143.3 54.18, 144.98 50.93, 150.09 45.17 M138.76 61.4 C140.68 57.48, 143.78 54.65, 152.21 44.72 M143.06 59.91 C146.51 58.95, 148.43 54.72, 151.73 50.14 M144.41 59.57 C147 57.05, 149.62 53.64, 151.2 50.57" stroke="#ced4da" stroke-width="0.5" fill="none"></path><path d="M-0.39 -1.69 C45.63 -0.44, 90.07 0.89, 149.74 -0.83 M-0.64 -0.46 C32.03 -0.89, 66.54 -0.25, 149.38 0.58 M148.36 0.4 C151.11 17.95, 150.72 33.3, 148.14 58.75 M149.08 -0.01 C149.91 12.87, 149.72 24.97, 148.32 60.73 M148.08 60.37 C107.27 61.58, 59.73 60.54, 1.68 60.51 M148.58 60.7 C103.48 60.6, 58.48 59.83, 0.6 60.59 M-1.52 59.27 C-0.83 42.13, 1.49 26.33, 0.58 -0.72 M-0.25 60.94 C-1.43 47.02, -1.12 35.01, 0.66 0.49" stroke="#495057" stroke-width="1" fill="none"></path></g><g stroke-linecap="round" transform="translate(10 350.700679929133) rotate(0 74.31981188300279 26.357913506874382)"><path d="M0 0 C0 0, 0 0, 0 0 M0 0 C0 0, 0 0, 0 0 M0.06 5.91 C2.31 4.69, 3.92 1.04, 4.31 -0.03 M-0.5 6.02 C1.57 3.75, 3.59 1.57, 5.12 0.47 M-0.83 12.83 C4.55 6.24, 7.3 2.07, 10.6 -0.04 M0.65 11.46 C4.17 7.66, 6.95 2.54, 11.21 -0.82 M0.74 19.51 C7.27 13.21, 11.79 4.22, 15.38 0.94 M-0.8 17.66 C4.32 14.16, 9.3 8.58, 15.5 0.48 M0.74 25.31 C2.71 20.91, 10.74 12.89, 20.63 -0.01 M0.91 24.53 C8.07 14.45, 16.31 5.65, 20.61 -0.56 M-1.87 31.54 C7.57 22.67, 11.07 15.21, 27.46 0.54 M0.62 31.19 C5.48 23.67, 11.98 17, 25.39 0.27 M-0.7 35.29 C10.11 28.52, 15.41 17.67, 32.51 0.55 M-0.79 35.93 C9.36 28.39, 16.33 16.84, 32.03 -0.52 M0.05 42.7 C7.28 34.33, 14.72 22.1, 36.9 -0.63 M0.17 42.46 C14.86 25.01, 29.99 8.39, 36.38 0.88 M1.86 48.02 C14.71 33.73, 31.21 14.41, 43.68 -1.52 M-0.93 49.22 C17.75 29.62, 34.67 10.44, 41.59 -0.44 M1.24 54.43 C9.7 44.85, 19.43 31.85, 46.75 0.39 M1.16 53.48 C16.88 37.13, 31.93 18.23, 48.28 1.07 M6.01 53.06 C18.45 38.12, 29.34 24.43, 52.3 1.39 M6.87 52.67 C19.69 38.24, 33.17 22.54, 52.16 -0.52 M9.65 53.16 C23.49 41.56, 37.18 27.42, 59.77 -1.63 M12.32 53.81 C29.16 32.85, 45.89 13.84, 58.25 0.47 M16.53 53.55 C30.42 40.5, 41.94 24.74, 63.25 1.66 M17.86 53.23 C26.87 42.63, 36.93 30.62, 64.49 -0.57 M20.96 51.98 C31.53 43.58, 39.02 31.92, 68.45 1.84 M21.25 53.26 C31.75 42.71, 42.16 31.49, 67.88 0.56 M26.59 51.93 C38.63 39.45, 51.54 23.28, 74.12 -1.51 M28.36 53.23 C44.24 33.72, 60.86 14.58, 74.21 -1.06 M33.38 55.43 C46.55 39.49, 61.15 23.91, 81 -0.9 M32.28 53.67 C49.99 34.27, 66.83 14.65, 80.12 -0.33 M37.02 53.88 C46.56 42.56, 59.96 28.82, 85.24 -0.19 M38.02 53.32 C51.42 37.68, 63.96 22.7, 84.85 -0.1 M43.87 52.86 C59.07 36.07, 77.09 15.82, 91.36 0.26 M43.63 53.26 C59.15 36.88, 73.84 20.15, 90.33 -0.01 M50.38 54.89 C61.33 36.37, 74.41 21.95, 97.65 0.37 M48.88 54 C58.5 40.56, 69.08 28.93, 94.86 -0.44 M54.07 52.36 C71.5 32.85, 92.33 11.06, 101.16 -0.81 M54.4 53.59 C70.01 34.55, 87.1 15.14, 101.25 0.6 M60.28 54.96 C72.97 37.08, 87.74 20.32, 107.09 -0.32 M59.71 53.41 C78.38 33.77, 97.01 11.51, 106.52 -0.46 M64.39 54.83 C74.37 43.92, 81.4 32.55, 109.77 -0.44 M65.61 54.57 C79.96 36.16, 95.03 19.04, 112.02 0.4 M68.03 53.61 C85.06 35.65, 99.39 22.16, 117.39 0.81 M69.66 53.26 C84.1 36.81, 99.93 18.73, 116.41 -0.43 M75.9 51.95 C93.29 33.14, 113.92 11.07, 120.27 0.8 M75.14 53.51 C89.97 38.21, 102.08 22.72, 121.15 -0.82 M80.67 52.41 C91.25 42.36, 103.87 28.59, 125.05 1.31 M81.27 54.39 C96.95 36.5, 111.86 18.79, 126.91 -0.54 M84.43 52.17 C102.06 36.29, 118.03 19.81, 133.47 0.13 M86.78 54.03 C96.3 40.75, 108.53 26.55, 131.57 0.56 M91.63 53.95 C108.91 31.87, 125.73 12.16, 137.33 -0.18 M90.15 54.75 C107.39 34.61, 125.85 13.38, 137.37 0.66 M98.52 54.73 C104.74 41.04, 116.18 29.95, 141.89 -1.44 M97.19 53.14 C106.65 41.22, 119.25 26.86, 143.58 -0.96 M102.07 52.63 C118.21 34.37, 136.41 13.82, 148.86 -1.04 M101.28 53.16 C113.39 40.51, 124.27 27.45, 147.65 0.21 M105.42 51.65 C123.21 34.56, 139.43 16.5, 153.8 1.13 M106.95 54.21 C119.34 40.03, 129.79 27.46, 151.9 1.24 M110.84 52.58 C128.03 36.51, 141.89 21.47, 151.76 8.47 M112.07 54.27 C128.42 37.27, 143.63 18.6, 151.31 8.84 M117.11 53.73 C128.25 40.64, 139.73 28.65, 151.94 14.71 M117.5 53.95 C129.03 40.61, 139.08 30.15, 151.42 14.68 M124.52 53.76 C132.18 45.74, 137.44 36.69, 152.05 22.02 M123.27 53.61 C130.34 45.39, 137.73 37.08, 150.94 20.78 M128.27 52.54 C132.73 48.07, 140.13 38.78, 149.83 28.33 M128.2 53.44 C137.37 44.63, 144.67 35.06, 152.44 27.1 M135.43 53.89 C138.53 45.69, 145.07 38.8, 151.79 32.83 M134.06 54.57 C141.21 45.23, 147.33 38.04, 151.37 32.38 M138.37 54.39 C142.1 48.1, 146.48 44.45, 150.27 38.87 M139.26 53.15 C144.3 48.43, 147.89 43.52, 152.16 39.19 M143.81 54.13 C145.72 49.92, 149.03 47.28, 151.6 44.32 M144.59 53.54 C146.16 51.41, 148.33 49.25, 151.35 45.12" stroke="#ced4da" stroke-width="0.5" fill="none"></path><path d="M-1.69 0.99 C38.39 1.08, 79.03 1.03, 147.81 -1.57 M-0.46 -0.98 C59.01 1.48, 119.03 1.33, 149.22 -0.15 M149.04 1.54 C149.91 21.95, 148.18 40.72, 147.39 50.8 M148.63 0.87 C149.69 16.82, 149.54 31.6, 149.37 52.65 M149.01 54.7 C95.55 50.19, 39.58 53.71, 0.51 52.77 M149.34 52.34 C117.46 51.84, 84.71 52.69, 0.59 52.46 M-0.73 52.28 C-1.14 35.31, -0.48 14.7, -0.72 -1.95 M0.94 51.89 C-0.67 31.12, -0.54 11.24, 0.49 0.25" stroke="#495057" stroke-width="1" fill="none"></path></g><g stroke-linecap="round" transform="translate(10.442129143028865 407.17968294422997) rotate(0 74.5 30)"><path d="M0 0 C0 0, 0 0, 0 0 M0 0 C0 0, 0 0, 0 0 M-0.23 6.24 C1.77 4.12, 3.34 1.89, 4.92 -0.12 M-0.19 6.6 C0.97 5.27, 2.34 3.39, 4.85 0.65 M0.27 12.42 C4.71 6.92, 7.82 2.82, 12.1 0.48 M0.06 11.88 C3.5 8.2, 7.95 4.13, 10.24 -0.68 M0.55 16.73 C3.82 15.57, 7.48 10.6, 14.38 -1.23 M-0.25 19.35 C4.36 13.07, 9.34 7.22, 15.13 0.39 M-0.59 25.39 C9.87 13.13, 17.02 5.51, 19.89 0.12 M0.82 24.08 C4.48 17.66, 10.88 12.85, 20.92 -0.49 M0.03 32.34 C8.41 20.28, 17.07 11.3, 27.98 2.01 M-0.11 29.5 C11.04 17.85, 20.57 7.22, 26.56 0.7 M-0.71 37.46 C5.74 30.07, 15.19 23.33, 31.28 0.7 M0.13 36.98 C6.22 27.32, 14.18 18.51, 32.08 -1.03 M0.57 43.13 C12.83 29.66, 22.83 14.4, 35.67 1.67 M-0.67 43.49 C9.65 30.04, 21.06 17.75, 36.4 0.58 M0.69 48.64 C13.74 31.43, 30.15 13.92, 44.33 -0.27 M-0.93 48.26 C11.88 36.32, 23.04 22.16, 42.64 0.42 M1.24 55.14 C17.46 34.86, 39.64 12.84, 49.3 1.25 M-0.61 54.9 C17.23 35.28, 32.25 15.95, 47.97 0.46 M0.85 59.06 C20.07 37.82, 40.44 16.42, 51.54 0.33 M1.28 61.06 C16.97 41.72, 34.29 23.11, 52.98 -0.88 M5.16 62.05 C18.27 45.44, 27.74 35.23, 56.5 0.99 M6 59.61 C23.04 42.29, 40.72 22.58, 57.46 -0.32 M9.94 58.99 C30.18 41.34, 47.12 20.34, 62.18 1.34 M10.42 60.83 C31.4 37.77, 49.47 16.18, 63.82 -0.29 M14.97 59.34 C36.94 39.73, 54.09 15.15, 70.68 -0.18 M16.22 60.99 C34.99 38.31, 53.76 15.98, 68.9 -0.55 M20.91 59.33 C42.58 37.75, 58.98 18.44, 76.28 -0.69 M21.02 60.78 C36.91 42.56, 50.22 25.76, 75.28 -0.77 M26.84 62.21 C44.84 37.2, 64.51 17.6, 81.02 1.4 M27.21 60.78 C47.89 36.5, 67.22 14.38, 79.2 -0.12 M32.33 60.36 C49.2 42.47, 63.84 24.12, 86.69 -1.5 M32.3 59.73 C49.19 39.89, 68.44 19.03, 85.81 0.12 M38.98 59.56 C51.64 44.3, 65.54 28.63, 90.49 0.11 M37.74 60.1 C54.53 41.75, 71.66 20.96, 89.11 0.98 M44.53 61.09 C56.68 44.77, 71.61 27.41, 97.02 0.92 M43.31 60.36 C58.65 42.67, 74.42 24.57, 95.22 -0.8 M48.38 62.01 C61.46 43.85, 78.89 28.41, 101.86 -0.94 M47.93 60.47 C62.79 44.89, 76.49 27.96, 100.26 -0.36 M53 62 C67.97 44.15, 84.36 25.18, 107.65 0.26 M53.34 61 C67.57 44.59, 81.42 27.61, 105.68 -1.32 M56.81 59.88 C77.12 41.59, 95.55 20.04, 111.64 0.06 M58.27 60.79 C76.32 38.44, 95.48 18.45, 112.12 0.64 M64.96 60.02 C77 49.96, 84.72 35.98, 117.11 0.71 M63.5 61.62 C80.85 42.78, 97.28 23.77, 116.08 -0.09 M68.8 61.24 C86.6 43.74, 101.89 24.9, 120.17 1.65 M68.6 60.34 C81.11 47.17, 93.05 35.08, 121.04 -0.36 M73.43 59.07 C89 44.99, 100.46 31.18, 126.66 -0.09 M73.77 61.33 C86.9 46.69, 99.86 32.06, 127.62 -0.61 M81.71 61.85 C101.31 39.24, 117.72 14.83, 133.53 1.08 M79.15 59.81 C99.74 38.07, 120.72 15.56, 133.21 0.23 M85.88 61.02 C97.98 46.44, 111.2 32.39, 138.39 -0.53 M84.67 60.37 C104.14 39.74, 122.46 18.22, 136.89 0.24 M91.62 59.21 C105.98 40.54, 125.46 19.24, 141.6 0.32 M91.45 60.27 C104.08 42.66, 118.12 27.67, 143.69 0.84 M97.58 60.48 C115.5 39.73, 130.95 18, 147.81 -0.02 M95.57 59.9 C113.82 39.57, 131.87 18.38, 147.51 0.25 M99.45 58.51 C112.8 49.45, 120.57 37.03, 150.07 2.35 M101.45 60.18 C119.52 38.64, 138.76 16.99, 151.43 2.1 M105.55 58.77 C123.26 39.7, 141.11 21.81, 150 8.05 M105.7 60.95 C116.79 50.33, 124.6 38.98, 151.23 7.88 M112.87 58.69 C122.5 47.69, 130.33 38.5, 151.82 16.1 M112.43 60.39 C123.9 47.75, 135.03 33.54, 151.65 14.78 M118.61 61.92 C127.85 48.9, 135.95 39.4, 151.99 21.16 M117.14 61.43 C128.69 48.83, 139.28 34.69, 151.33 20.16 M124.32 58.4 C134.39 47.55, 144.22 35.28, 151.95 28.66 M122.03 61.14 C131.65 50.82, 141.12 39.76, 151.84 26.95 M127.36 58.68 C133.71 52.84, 139.88 47.63, 150.92 31.28 M127.85 61.17 C135.5 50.66, 144 42.83, 151.76 33.26 M133.05 62 C139.74 55.07, 143.69 49.13, 152.76 39.37 M133.25 61.08 C136.08 54.78, 141.43 52.05, 151.82 39.11 M138.17 58.53 C141.1 55.39, 146.56 49.71, 153.42 45.87 M138.63 60.86 C143.47 55.48, 147.99 51.15, 151.59 44.52 M143.38 60.98 C145.02 57.13, 147.42 56.77, 152.13 51.95 M143.61 60.18 C145.73 58.58, 147.48 55.71, 151.46 51.59" stroke="#ced4da" stroke-width="0.5" fill="none"></path><path d="M-1.82 1.33 C59.31 0.45, 117.06 -1.14, 150.9 -1.8 M0.29 -0.34 C54.39 0.81, 107.26 -0.09, 149.57 0.93 M150.87 -1.7 C147.92 17.25, 150.42 37.17, 147.67 60.86 M148.64 -1 C149.73 14.61, 148.35 27.57, 149.21 60.38 M150.68 58.1 C113.52 59.38, 79.13 58.8, -0.77 59.75 M149.41 59.64 C96.69 59.21, 44.89 57.97, -0.91 60.26 M-1.27 61.24 C-0.44 43.93, 1.49 31.17, -1.38 -1.28 M-0.82 59.99 C1.05 46.97, 0.51 35.95, 0.13 0.76" stroke="#495057" stroke-width="1" fill="none"></path></g><g transform="translate(15.801367179536328 291.4919799922827) rotate(0 69.5 25)"><text x="69.5" y="18" font-family="Virgil, Segoe UI Emoji" font-size="20px" fill="#495057" text-anchor="middle" style="white-space: pre;" direction="ltr">EventSource </text><text x="69.5" y="43" font-family="Virgil, Segoe UI Emoji" font-size="20px" fill="#495057" text-anchor="middle" style="white-space: pre;" direction="ltr">client</text></g><g transform="translate(29.9721316896987 353.8451532958578) rotate(0 55.5 25)"><text x="55.5" y="18" font-family="Virgil, Segoe UI Emoji" font-size="20px" fill="#495057" text-anchor="middle" style="white-space: pre;" direction="ltr">WebSocket </text><text x="55.5" y="43" font-family="Virgil, Segoe UI Emoji" font-size="20px" fill="#495057" text-anchor="middle" style="white-space: pre;" direction="ltr">client</text></g><g transform="translate(15.442129143028865 424.67968294422997) rotate(0 69.5 12.5)"><text x="69.5" y="18" font-family="Virgil, Segoe UI Emoji" font-size="20px" fill="#495057" text-anchor="middle" style="white-space: pre;" direction="ltr">HTTP Client</text></g><g stroke-linecap="round"><g transform="translate(171.05060179697642 188.0013979387465) rotate(0 75.9590694070332 22.670097440374406)"><path d="M-0.75 -0.66 C24.21 6.95, 125.13 38.29, 150.58 46 M1.06 1.61 C26.3 8.83, 127.63 36.58, 152.67 44.14" stroke="#495057" stroke-width="1" fill="none"></path></g><g transform="translate(171.05060179697642 188.0013979387465) rotate(0 75.9590694070332 22.670097440374406)"><path d="M121.65 44.28 C134.54 46.01, 144.82 44.46, 153.56 43.99 M122.17 46.55 C132.63 45.08, 143.83 44.78, 153.4 43.64" stroke="#495057" stroke-width="1" fill="none"></path></g><g transform="translate(171.05060179697642 188.0013979387465) rotate(0 75.9590694070332 22.670097440374406)"><path d="M127.29 24.55 C138.17 33.47, 146.38 39.16, 153.56 43.99 M127.81 26.82 C136.25 32.14, 145.52 38.6, 153.4 43.64" stroke="#495057" stroke-width="1" fill="none"></path></g></g><g stroke-linecap="round"><g transform="translate(176.5374579483845 231.8748167854148) rotate(0 74.62098259362998 15.298803032446045)"><path d="M0.7 0.72 C25.76 5.94, 124.93 25.8, 149.64 30.54 M-0.4 0.06 C24.58 5.03, 124.04 23.91, 148.75 28.94" stroke="#495057" stroke-width="1" fill="none"></path></g><g transform="translate(176.5374579483845 231.8748167854148) rotate(0 74.62098259362998 15.298803032446045)"><path d="M120.32 33.79 C127.94 31.39, 132.77 29.43, 149.09 27.85 M119.77 33.17 C126.82 32.15, 131.91 32.15, 148.48 28.96" stroke="#495057" stroke-width="1" fill="none"></path></g><g transform="translate(176.5374579483845 231.8748167854148) rotate(0 74.62098259362998 15.298803032446045)"><path d="M124.27 13.66 C130.81 16.11, 134.69 18.98, 149.09 27.85 M123.71 13.03 C129.93 16.68, 134.1 21.35, 148.48 28.96" stroke="#495057" stroke-width="1" fill="none"></path></g></g><g stroke-linecap="round"><g transform="translate(322.2883798783111 345.5864087516138) rotate(0 -76.45574763307157 12.209898681071792)"><path d="M-1.19 0.63 C-26.7 4.45, -127.49 19.24, -152.82 23.1 M0.39 -0.08 C-25.23 3.9, -127.61 20.88, -153.3 24.5" stroke="#495057" stroke-width="1" fill="none"></path></g><g transform="translate(322.2883798783111 345.5864087516138) rotate(0 -76.45574763307157 12.209898681071792)"><path d="M-125.96 11.54 C-135.84 15.26, -143.18 17.76, -153.39 24.38 M-126.58 9.65 C-135.62 15.23, -145.19 20.26, -153.57 25.19" stroke="#495057" stroke-width="1" fill="none"></path></g><g transform="translate(322.2883798783111 345.5864087516138) rotate(0 -76.45574763307157 12.209898681071792)"><path d="M-122.82 31.82 C-133.75 29, -142.1 24.98, -153.39 24.38 M-123.44 29.93 C-133.49 28.2, -144.2 25.9, -153.57 25.19" stroke="#495057" stroke-width="1" fill="none"></path></g></g><g stroke-linecap="round"><g transform="translate(323.420447594216 296.36647480583224) rotate(0 -77.51277738095068 11.606938807460693)"><path d="M-0.07 -0.69 C-25.78 3.1, -128.21 18.57, -153.91 22.7 M-1.57 1.56 C-27.48 5.5, -129.33 20.46, -154.95 23.9" stroke="#495057" stroke-width="1" fill="none"></path></g><g transform="translate(323.420447594216 296.36647480583224) rotate(0 -77.51277738095068 11.606938807460693)"><path d="M-129.62 9.49 C-138.17 13.47, -144.41 18.39, -155.14 25.66 M-128.96 10.06 C-136.71 14.25, -145.72 18.17, -155.81 24.42" stroke="#495057" stroke-width="1" fill="none"></path></g><g transform="translate(323.420447594216 296.36647480583224) rotate(0 -77.51277738095068 11.606938807460693)"><path d="M-126.75 29.81 C-136.22 27.18, -143.41 25.48, -155.14 25.66 M-126.08 30.38 C-134.63 27.91, -144.58 25.18, -155.81 24.42" stroke="#495057" stroke-width="1" fill="none"></path></g></g><g stroke-linecap="round"><g transform="translate(322.72499507962465 392.78967965121893) rotate(0 -76.8832124982848 11.430909466174654)"><path d="M-0.77 -1.12 C-26.73 2.86, -129.19 19.87, -154.79 23.98 M1.02 0.9 C-24.66 4.52, -126.55 18.17, -152.64 22.2" stroke="#495057" stroke-width="1" fill="none"></path></g><g transform="translate(322.72499507962465 392.78967965121893) rotate(0 -76.8832124982848 11.430909466174654)"><path d="M-128.05 6.28 C-135.18 12.19, -145.91 19.99, -150.84 21.52 M-126.45 7.9 C-131.98 12.02, -138.88 14.07, -151.8 22.19" stroke="#495057" stroke-width="1" fill="none"></path></g><g transform="translate(322.72499507962465 392.78967965121893) rotate(0 -76.8832124982848 11.430909466174654)"><path d="M-125.15 26.59 C-133.4 24.75, -145.24 24.81, -150.84 21.52 M-123.54 28.22 C-129.9 27.76, -137.44 25.25, -151.8 22.19" stroke="#495057" stroke-width="1" fill="none"></path></g></g><g transform="translate(508.262723218412 269.24185206678396) rotate(0 39 60)"><text x="0" y="14" font-family="Virgil, Segoe UI Emoji" font-size="16px" fill="#495057" text-anchor="start" style="white-space: pre;" direction="ltr"></text><text x="0" y="34" font-family="Virgil, Segoe UI Emoji" font-size="16px" fill="#495057" text-anchor="start" style="white-space: pre;" direction="ltr">Directives</text><text x="0" y="54" font-family="Virgil, Segoe UI Emoji" font-size="16px" fill="#495057" text-anchor="start" style="white-space: pre;" direction="ltr">Phases</text><text x="0" y="74" font-family="Virgil, Segoe UI Emoji" font-size="16px" fill="#495057" text-anchor="start" style="white-space: pre;" direction="ltr">Locations</text><text x="0" y="94" font-family="Virgil, Segoe UI Emoji" font-size="16px" fill="#495057" text-anchor="start" style="white-space: pre;" direction="ltr">Channels</text><text x="0" y="114" font-family="Virgil, Segoe UI Emoji" font-size="16px" fill="#495057" text-anchor="start" style="white-space: pre;" direction="ltr">Scripts</text></g><g transform="translate(814.3927100332392 119.1952434403189) rotate(0 103 40)"><text x="0" y="14" font-family="Virgil, Segoe UI Emoji" font-size="16px" fill="#495057" text-anchor="start" style="white-space: pre;" direction="ltr">Geospatial Server</text><text x="0" y="34" font-family="Virgil, Segoe UI Emoji" font-size="16px" fill="#495057" text-anchor="start" style="white-space: pre;" direction="ltr">- Datastore &amp; Geofence </text><text x="0" y="54" font-family="Virgil, Segoe UI Emoji" font-size="16px" fill="#495057" text-anchor="start" style="white-space: pre;" direction="ltr">  Notifications </text><text x="0" y="74" font-family="Virgil, Segoe UI Emoji" font-size="16px" fill="#495057" text-anchor="start" style="white-space: pre;" direction="ltr"></text></g><g transform="translate(815.5381353037501 431.1140801389757) rotate(0 101 20)"><text x="0" y="14" font-family="Virgil, Segoe UI Emoji" font-size="16px" fill="#495057" text-anchor="start" style="white-space: pre;" direction="ltr">Metrics Server</text><text x="0" y="34" font-family="Virgil, Segoe UI Emoji" font-size="16px" fill="#495057" text-anchor="start" style="white-space: pre;" direction="ltr">- TimeSeries &amp; Counters </text></g></svg>